<?xml version="1.0" standalone="no"?>
<!DOCTYPE svg PUBLIC "-//W3C//DTD SVG 20010904//EN"
 "http://www.w3.org/TR/2001/REC-SVG-20010904/DTD/svg10.dtd">
<svg version="1.0" xmlns="http://www.w3.org/2000/svg"
 width="1080.000000pt" height="2400.000000pt" viewBox="0 0 1080.000000 2400.000000"
 preserveAspectRatio="xMidYMid meet">
<metadata>
Created by potrace 1.16, written by Peter Selinger 2001-2019
</metadata>
<g transform="translate(0.000000,2400.000000) scale(0.100000,-0.100000)"
fill="#000000" stroke="none">
<path d="M9554 23478 c-33 -15 -44 -51 -44 -138 0 -89 11 -123 47 -139 15 -7
112 -11 273 -11 249 0 249 0 277 24 27 24 28 27 28 126 0 99 -1 102 -28 126
l-28 24 -252 -1 c-152 0 -261 -4 -273 -11z m540 -40 c11 -16 16 -46 16 -98 0
-126 15 -120 -282 -120 -304 0 -288 -7 -288 118 0 129 -17 122 286 122 250 0
253 0 268 -22z"/>
<path d="M1662 23464 c-99 -51 -110 -201 -19 -266 41 -29 114 -35 161 -13 102
49 115 201 23 267 -40 29 -121 34 -165 12z m155 -59 c33 -33 35 -39 31 -86 -7
-74 -40 -104 -114 -104 -50 0 -58 3 -85 33 -23 26 -29 42 -29 78 0 39 5 51 34
80 29 29 41 34 81 34 40 0 52 -5 82 -35z"/>
<path d="M2240 23406 c-144 -62 -175 -87 -128 -100 44 -11 61 -6 124 39 96 69
109 62 39 -21 -25 -28 -45 -55 -45 -58 0 -10 105 -76 122 -76 17 0 26 31 48
165 13 81 13 115 -2 114 -7 0 -78 -28 -158 -63z"/>
<path d="M3094 23457 c-2 -7 -3 -62 -2 -123 l3 -109 38 -3 37 -3 0 50 c0 28 3
51 6 51 3 0 21 -12 40 -26 l34 -26 34 26 c19 14 37 26 40 26 3 0 6 -23 6 -51
l0 -50 38 3 37 3 0 120 c0 117 -1 120 -23 123 -15 2 -40 -12 -77 -43 l-54 -47
-57 46 c-56 46 -90 57 -100 33z m94 -62 c30 -25 58 -45 62 -45 4 0 32 20 62
45 30 25 60 45 67 45 7 0 11 -30 11 -95 0 -88 -2 -95 -20 -95 -17 0 -19 8 -22
65 l-3 65 -47 -41 -48 -41 -47 41 -48 41 -3 -65 c-3 -57 -5 -65 -22 -65 -18 0
-20 7 -20 95 0 65 4 95 11 95 7 0 37 -20 67 -45z"/>
<path d="M807 23360 c-31 -49 -57 -94 -57 -100 0 -6 26 -10 60 -10 l60 0 0
-30 c0 -23 4 -30 20 -30 16 0 20 7 20 30 0 20 5 30 15 30 8 0 15 7 15 15 0 8
-7 15 -15 15 -12 0 -15 16 -15 85 0 82 -1 85 -23 85 -19 0 -35 -19 -80 -90z"/>
<path d="M1306 23428 c-3 -13 -7 -43 -10 -67 l-4 -43 44 7 c30 4 50 2 60 -6
17 -14 19 -70 2 -87 -19 -19 -56 -14 -68 8 -12 23 -40 27 -40 5 0 -24 42 -55
76 -55 17 0 43 9 58 21 21 16 26 29 26 64 0 56 -36 90 -89 81 -30 -5 -33 -3
-27 17 3 12 6 28 6 35 0 8 17 12 50 12 38 0 50 4 50 15 0 12 -14 15 -65 15
-59 0 -65 -2 -69 -22z"/>
<path d="M6583 22608 c-65 -14 -51 -23 31 -20 161 7 296 -45 406 -157 39 -40
78 -91 93 -124 28 -58 57 -163 57 -208 0 -36 24 -56 46 -39 33 28 -11 208 -74
306 -46 71 -129 149 -199 187 -104 56 -255 79 -360 55z"/>
<path d="M3910 22276 c0 -130 2 -146 21 -170 26 -33 79 -37 79 -7 0 11 -9 23
-20 26 -19 6 -20 15 -20 151 l0 144 -30 0 -30 0 0 -144z"/>
<path d="M4490 22245 l0 -175 25 0 c25 0 25 1 25 88 0 72 3 92 18 104 30 26
51 29 72 8 17 -17 20 -34 20 -110 0 -89 0 -90 25 -90 l25 0 0 105 c0 99 -2
107 -25 130 -28 29 -63 32 -105 10 l-30 -16 0 61 c0 57 -1 60 -25 60 l-25 0 0
-175z"/>
<path d="M3686 22401 c-3 -5 -30 -79 -60 -164 -37 -106 -51 -157 -43 -160 28
-9 48 7 58 49 l11 44 64 0 64 0 11 -44 c11 -44 33 -62 59 -46 10 6 -40 168
-95 313 -7 18 -59 24 -69 8z"/>
<path d="M5166 22358 c-3 -29 -8 -106 -12 -170 l-7 -118 27 0 c25 0 26 2 27
63 1 34 4 91 8 127 l6 65 44 -112 c32 -82 49 -113 61 -113 12 0 29 30 60 113
24 61 44 108 46 102 1 -5 6 -63 9 -127 7 -118 7 -118 32 -118 l26 0 -7 118
c-4 64 -9 141 -12 170 -6 49 -8 52 -34 52 -29 0 -37 -14 -101 -192 -7 -21 -15
-38 -19 -38 -3 0 -25 52 -49 115 -41 108 -45 115 -71 115 -26 0 -28 -3 -34
-52z"/>
<path d="M4797 22337 c-26 -23 -47 -45 -47 -49 0 -5 11 -8 25 -8 25 0 25 -1
25 -89 0 -82 2 -91 22 -105 12 -9 40 -16 61 -16 34 0 38 3 35 23 -2 15 -9 21
-21 19 -36 -6 -47 16 -47 94 l0 74 30 0 c23 0 30 4 30 20 0 15 -7 20 -29 20
-25 0 -30 4 -33 29 l-3 29 -48 -41z"/>
<path d="M5867 22337 c-26 -23 -47 -45 -47 -49 0 -5 11 -8 25 -8 25 0 25 -1
25 -85 0 -72 3 -88 20 -105 33 -33 112 -25 103 11 -4 12 -11 18 -20 15 -8 -3
-23 -1 -34 4 -16 9 -19 22 -19 85 l0 75 30 0 c23 0 30 4 30 20 0 15 -7 20 -29
20 -25 0 -30 4 -33 29 l-3 29 -48 -41z"/>
<path d="M450 22330 c0 -19 7 -20 240 -20 233 0 240 1 240 20 0 19 -7 20 -240
20 -233 0 -240 -1 -240 -20z"/>
<path d="M5620 22327 c-97 -34 -109 -193 -18 -243 31 -18 93 -17 128 1 38 20
60 63 60 117 0 96 -81 156 -170 125z m104 -80 c16 -33 17 -45 7 -78 -28 -94
-131 -70 -131 31 0 64 22 92 68 88 32 -3 40 -9 56 -41z"/>
<path d="M6263 22329 c-51 -15 -83 -61 -83 -120 0 -88 46 -139 125 -139 96 0
151 97 111 193 -23 56 -89 85 -153 66z m91 -61 c24 -34 21 -107 -6 -135 -71
-76 -159 60 -90 140 22 25 77 22 96 -5z"/>
<path d="M6595 22320 c-47 -24 -45 -24 -45 -5 0 9 -9 15 -25 15 l-25 0 0 -130
0 -130 30 0 30 0 0 94 c0 87 2 96 22 110 31 22 65 20 78 -3 5 -11 10 -60 10
-110 l0 -91 31 0 32 0 -5 110 c-4 92 -8 114 -24 130 -30 30 -64 33 -109 10z"/>
<path d="M6996 22332 c-3 -6 5 -32 18 -59 70 -141 54 -301 -43 -427 -43 -55
-46 -86 -10 -86 24 0 92 96 120 169 26 70 29 183 6 261 -17 60 -81 158 -91
142z"/>
<path d="M4239 22314 c-41 -21 -54 -63 -34 -109 10 -26 12 -42 5 -49 -13 -13
-13 -53 1 -61 7 -5 4 -13 -7 -26 -22 -24 -21 -69 1 -85 52 -38 171 -22 208 28
41 56 0 98 -97 98 -85 0 -102 45 -18 47 60 1 92 32 92 89 0 35 4 44 21 49 16
5 18 10 10 18 -17 17 -151 18 -182 1z"/>
<path d="M452 22178 l3 -23 235 0 235 0 3 23 3 22 -241 0 -241 0 3 -22z"/>
<path d="M447 22036 c-12 -32 15 -36 238 -36 121 0 226 4 234 9 8 5 11 16 8
25 -6 14 -35 16 -241 16 -189 0 -235 -3 -239 -14z"/>
<path d="M6931 21986 c-39 -94 -126 -158 -236 -174 -41 -6 -51 -11 -53 -29 -2
-14 3 -23 17 -28 32 -10 137 21 186 55 67 46 125 142 125 206 0 39 -15 27 -39
-30z"/>
<path d="M695 20731 c-97 -25 -179 -91 -222 -180 l-28 -56 0 -305 c0 -293 1
-307 22 -352 31 -67 96 -133 162 -165 l56 -28 935 0 935 0 47 22 c67 31 133
96 165 162 l28 56 0 305 0 305 -28 56 c-32 66 -98 131 -165 162 l-47 22 -915
2 c-503 0 -928 -2 -945 -6z m414 -407 c26 -22 31 -33 31 -70 0 -68 -31 -94
-110 -94 l-60 0 0 -60 c0 -57 -1 -60 -25 -60 l-25 0 0 155 0 155 79 0 c71 0
83 -3 110 -26z m1091 -59 c0 -47 4 -85 8 -85 4 0 26 18 47 40 28 29 47 40 69
40 l30 0 -54 -55 -54 -55 54 -55 54 -55 -29 0 c-22 0 -42 13 -77 47 l-48 47 0
-47 c0 -43 -2 -47 -25 -47 l-25 0 0 155 0 155 25 0 c25 0 25 -1 25 -85z m-682
-18 c51 -25 67 -107 32 -164 -40 -66 -150 -66 -191 1 -30 49 -25 99 17 154 1
2 19 10 40 17 38 13 63 11 102 -8z m152 -65 c0 -85 8 -102 51 -102 42 0 59 32
59 112 0 66 1 68 25 68 l25 0 0 -136 c0 -74 -5 -144 -10 -155 -9 -16 -22 -19
-90 -19 -73 0 -80 2 -80 20 0 16 8 19 63 22 l62 3 3 40 3 39 -21 -19 c-32 -29
-87 -25 -116 9 -21 24 -24 37 -24 112 0 83 0 84 25 84 25 0 25 -1 25 -78z
m385 62 c26 -17 50 -76 41 -99 -4 -12 -25 -15 -86 -15 -44 0 -80 -3 -80 -7 0
-3 7 -15 17 -25 20 -22 76 -24 93 -3 14 17 20 18 40 5 12 -7 11 -13 -9 -34
-13 -14 -39 -29 -58 -32 -115 -22 -182 133 -89 208 27 22 99 23 131 2z"/>
<path d="M1410 20200 c-43 -43 -14 -120 45 -120 24 0 39 7 49 22 34 49 5 118
-49 118 -14 0 -34 -9 -45 -20z"/>
<path d="M470 18610 l0 -170 35 0 35 0 0 65 0 65 61 0 c54 0 64 3 90 29 24 25
29 38 29 79 0 40 -5 54 -26 76 -25 25 -32 26 -125 26 l-99 0 0 -170z"/>
<path d="M1840 18610 l0 -170 30 0 c29 0 30 1 30 53 l1 52 47 -53 c42 -47 51
-52 87 -52 l39 0 -57 58 c-31 32 -57 62 -57 67 0 5 23 33 52 62 l52 53 -41 0
c-37 0 -46 -5 -82 -47 l-41 -48 0 98 0 97 -30 0 -30 0 0 -170z"/>
<path d="M2296 18763 c-3 -10 -22 -81 -42 -157 -20 -77 -38 -146 -41 -153 -4
-9 5 -13 30 -13 33 0 36 2 42 40 l7 40 63 0 64 0 11 -40 c10 -36 14 -40 42
-40 27 0 30 3 24 23 -3 12 -22 88 -43 169 l-38 148 -57 0 c-45 0 -58 -4 -62
-17z"/>
<path d="M3030 18720 c0 -64 -3 -68 -34 -45 -43 32 -124 8 -144 -42 -26 -64
-19 -128 17 -164 24 -23 38 -29 73 -29 24 0 54 7 66 16 20 14 22 14 22 0 0
-11 10 -16 30 -16 l30 0 0 170 0 170 -30 0 -30 0 0 -60z m-20 -100 c44 -44 15
-130 -43 -130 -38 0 -50 7 -66 38 -37 71 53 148 109 92z"/>
<path d="M5222 18644 c3 -108 5 -117 27 -135 36 -30 111 -26 142 7 22 23 24
35 27 135 3 94 2 109 -12 109 -14 0 -16 -15 -16 -100 0 -94 -2 -103 -25 -125
-29 -30 -68 -32 -95 -5 -17 17 -20 33 -20 125 0 89 -2 105 -16 105 -14 0 -15
-15 -12 -116z"/>
<path d="M6010 18625 c0 -113 2 -135 15 -135 11 0 15 11 15 40 0 22 4 40 8 40
4 0 26 -18 47 -40 21 -22 48 -40 60 -40 16 1 9 11 -33 49 l-54 48 54 46 c38
34 48 47 34 47 -10 0 -40 -19 -65 -42 l-46 -43 -3 83 c-2 64 -6 82 -17 82 -12
0 -15 -23 -15 -135z"/>
<path d="M9985 18730 c-9 -14 134 -160 155 -160 21 0 164 146 155 160 -12 20
-30 9 -92 -52 l-63 -62 -63 62 c-62 61 -80 72 -92 52z"/>
<path d="M1011 18677 c-42 -21 -63 -60 -63 -115 0 -84 40 -122 130 -122 56 0
89 20 108 66 18 43 18 78 -2 119 -26 56 -114 82 -173 52z m104 -62 c47 -46 20
-125 -42 -125 -34 0 -46 8 -62 38 -24 46 12 112 62 112 10 0 29 -11 42 -25z"/>
<path d="M1615 18681 c-75 -33 -93 -164 -30 -218 36 -31 121 -32 159 -2 31 25
33 35 5 49 -16 9 -24 8 -38 -4 -21 -19 -72 -21 -89 -4 -7 7 -12 20 -12 30 0
16 10 18 85 18 l85 0 0 35 c0 52 -43 96 -100 101 -25 2 -54 0 -65 -5z"/>
<path d="M2645 18679 c-11 -7 -23 -17 -27 -23 -4 -6 -9 -4 -14 7 -3 9 -17 17
-30 17 -24 0 -24 0 -24 -120 l0 -120 30 0 30 0 0 84 c0 76 2 86 22 100 29 20
52 20 72 0 12 -12 16 -36 16 -100 l0 -84 31 0 31 0 -4 100 c-2 84 -6 103 -24
120 -25 25 -82 35 -109 19z"/>
<path d="M3204 18680 c-12 -5 -29 -19 -38 -32 -16 -22 -15 -23 9 -31 20 -7 29
-5 39 8 19 26 80 17 84 -12 3 -21 -1 -23 -36 -23 -51 0 -100 -18 -112 -40 -31
-57 9 -110 82 -110 28 0 50 6 58 15 11 13 15 13 33 0 12 -8 32 -15 44 -15 18
0 23 6 23 25 0 16 -6 25 -15 25 -12 0 -15 15 -15 71 0 65 -2 73 -29 100 -31
30 -81 38 -127 19z"/>
<path d="M780 18560 l0 -120 30 0 30 0 0 83 c0 91 8 107 52 107 23 0 28 4 28
25 0 21 -5 25 -28 25 -15 0 -34 -6 -41 -12 -11 -10 -14 -10 -18 0 -3 6 -16 12
-29 12 l-24 0 0 -120z"/>
<path d="M1250 18613 c0 -85 14 -138 43 -158 28 -19 91 -19 107 0 21 25 31 17
28 -22 l-3 -38 -72 -3 c-70 -3 -73 -4 -73 -27 0 -25 1 -25 85 -25 125 0 125 0
125 190 l0 150 -30 0 -30 0 0 -73 c0 -85 -16 -117 -58 -117 -50 0 -57 13 -61
105 l-3 85 -29 0 -29 0 0 -67z"/>
<path d="M6229 18659 c-15 -15 -18 -24 -10 -32 8 -8 15 -5 27 11 20 28 58 28
78 0 24 -34 20 -38 -34 -38 -76 0 -117 -53 -72 -93 23 -21 85 -22 103 -1 11
14 13 14 21 0 5 -9 18 -16 28 -16 24 0 26 15 5 24 -11 4 -15 22 -15 70 0 56
-3 67 -22 80 -32 23 -84 20 -109 -5z"/>
<path d="M6767 18673 c-4 -3 -7 -46 -7 -95 0 -72 3 -88 15 -88 12 0 15 14 15
68 0 71 16 102 51 102 30 0 39 -24 39 -97 0 -58 3 -73 15 -73 12 0 15 14 15
68 0 56 4 72 20 87 17 15 24 16 45 7 23 -11 25 -16 25 -87 0 -60 3 -75 15 -75
12 0 15 15 15 75 0 62 -4 79 -20 95 -24 24 -63 26 -84 4 -14 -14 -18 -14 -38
0 -29 21 -57 20 -80 -1 -17 -15 -18 -15 -18 0 0 17 -11 22 -23 10z"/>
<path d="M7127 18669 c-27 -16 -48 -72 -41 -109 14 -65 109 -95 156 -48 26 26
7 39 -21 14 -25 -23 -64 -20 -89 7 -37 40 -29 47 53 47 l75 0 0 29 c0 55 -81
90 -133 60z"/>
<path d="M8619 18659 c-15 -15 -18 -24 -10 -32 8 -8 15 -5 27 11 20 28 58 28
78 0 24 -34 20 -38 -34 -38 -76 0 -117 -53 -72 -93 23 -21 85 -22 103 -1 11
14 13 14 21 0 5 -9 18 -16 28 -16 24 0 26 15 5 24 -11 4 -15 22 -15 70 0 56
-3 67 -22 80 -32 23 -84 20 -109 -5z"/>
<path d="M9078 18660 c-32 -25 -42 -71 -24 -115 22 -53 80 -72 122 -40 29 22
34 18 34 -25 l0 -40 -65 0 c-51 0 -65 -3 -65 -15 0 -11 12 -15 53 -15 101 0
97 -6 97 141 0 79 -4 129 -10 129 -5 0 -10 -7 -10 -15 0 -8 -4 -15 -9 -15 -5
0 -14 7 -21 15 -18 21 -73 19 -102 -5z m107 -25 c14 -13 25 -36 25 -50 0 -31
-41 -75 -70 -75 -29 0 -70 44 -70 75 0 31 41 75 70 75 12 0 32 -11 45 -25z"/>
<path d="M9318 18660 c-32 -25 -42 -71 -24 -115 22 -53 80 -72 122 -40 29 22
34 18 34 -25 l0 -40 -65 0 c-51 0 -65 -3 -65 -15 0 -11 12 -15 53 -15 101 0
97 -6 97 141 0 79 -4 129 -10 129 -5 0 -10 -7 -10 -15 0 -8 -4 -15 -9 -15 -5
0 -14 7 -21 15 -18 21 -73 19 -102 -5z m107 -25 c14 -13 25 -36 25 -50 0 -31
-41 -75 -70 -75 -29 0 -70 44 -70 75 0 31 41 75 70 75 12 0 32 -11 45 -25z"/>
<path d="M9549 18659 c-15 -15 -18 -24 -10 -32 8 -8 15 -5 27 11 20 28 58 28
78 0 24 -34 20 -38 -34 -38 -76 0 -117 -53 -72 -93 23 -21 85 -22 103 -1 11
14 13 14 21 0 5 -9 18 -16 28 -16 24 0 26 15 5 24 -11 4 -15 22 -15 70 0 56
-3 67 -22 80 -32 23 -84 20 -109 -5z"/>
<path d="M3365 17539 c-49 -28 -60 -84 -25 -119 l21 -21 -21 -17 c-34 -27 -32
-88 4 -118 22 -20 38 -24 87 -24 54 0 64 3 90 29 37 38 39 82 5 109 l-25 19
21 21 c28 27 28 77 0 104 -25 25 -124 36 -157 17z"/>
<path d="M3700 17395 l0 -155 25 0 25 0 0 155 0 155 -25 0 -25 0 0 -155z"/>
<path d="M5201 17536 c-26 -15 -50 -51 -51 -78 0 -29 48 -24 56 6 3 13 17 29
31 35 54 25 107 -36 68 -79 -10 -11 -39 -26 -65 -35 -61 -20 -81 -43 -87 -100
l-6 -45 112 0 111 0 0 25 c0 25 -1 25 -85 25 -81 0 -85 1 -75 19 5 11 32 27
59 36 70 23 101 57 101 110 0 36 -5 48 -31 69 -35 29 -97 35 -138 12z"/>
<path d="M4110 17490 c0 -27 -3 -30 -31 -30 -26 0 -30 -3 -27 -22 2 -17 11
-24 31 -26 27 -3 27 -4 27 -77 0 -82 9 -95 69 -95 24 0 31 4 31 19 0 13 -8 21
-22 23 -21 3 -23 9 -26 66 l-3 62 46 0 45 0 0 -69 c0 -83 13 -101 71 -101 32
0 39 4 39 19 0 14 -8 21 -27 23 -27 3 -28 6 -31 66 l-3 62 31 0 c25 0 30 4 30
25 0 21 -5 25 -30 25 -27 0 -30 3 -30 30 0 25 -4 30 -25 30 -21 0 -25 -5 -25
-30 0 -29 -2 -30 -45 -30 -43 0 -45 1 -45 30 0 25 -4 30 -25 30 -21 0 -25 -5
-25 -30z"/>
<path d="M3846 17439 c-31 -25 -33 -36 -5 -44 13 -5 25 -1 33 10 18 24 70 17
74 -11 3 -19 -3 -22 -54 -26 -40 -3 -61 -10 -70 -23 -21 -29 -17 -72 8 -89 29
-20 92 -21 108 -1 12 14 15 14 30 0 24 -22 60 -20 60 4 0 10 -7 21 -15 25 -11
4 -15 22 -15 70 0 58 -3 67 -26 85 -16 13 -41 21 -64 21 -23 0 -48 -8 -64 -21z"/>
<path d="M4448 17445 c-54 -30 -61 -133 -13 -181 41 -41 165 -26 165 20 0 21
-31 28 -50 11 -28 -25 -90 -12 -90 20 0 12 16 15 75 15 l75 0 0 36 c0 75 -89
118 -162 79z"/>
<path d="M4842 17444 c-27 -19 -29 -64 -3 -88 10 -9 35 -19 55 -23 62 -10 75
-53 16 -53 -17 0 -34 8 -42 19 -10 14 -18 16 -36 10 -19 -7 -21 -12 -12 -29
15 -28 42 -40 94 -40 98 0 121 106 28 126 -47 10 -74 24 -70 37 7 18 50 21 63
3 7 -9 20 -13 33 -9 28 7 28 17 0 43 -27 25 -93 27 -126 4z"/>
<path d="M2670 17420 c0 -5 5 -10 11 -10 5 0 7 -5 4 -10 -4 -6 -3 -10 2 -9 20
3 34 -2 28 -11 -3 -5 3 -10 15 -10 12 0 18 -4 15 -10 -3 -5 1 -10 10 -10 8 0
18 -7 21 -15 4 -8 10 -13 14 -10 4 3 22 -9 39 -27 l31 -32 0 82 0 82 -95 0
c-57 0 -95 -4 -95 -10z"/>
<path d="M1106 17403 c-3 -4 -6 -98 -6 -210 0 -188 1 -203 18 -203 13 0 21 13
30 45 15 58 15 65 -3 65 -8 0 -15 5 -15 10 0 6 3 10 8 10 9 0 16 231 8 258 -7
21 -30 35 -40 25z"/>
<path d="M2702 17303 c1 -5 -2 -214 -6 -467 l-9 -459 -206 7 c-113 3 -419 9
-678 12 -469 7 -510 4 -455 -25 9 -5 197 -14 417 -20 447 -13 581 -19 705 -31
100 -11 174 -20 177 -24 3 -3 -88 -50 -97 -51 -3 0 -21 -11 -40 -25 -19 -14
-36 -23 -37 -20 -1 3 -5 2 -9 -2 -4 -5 83 -8 194 -8 l202 0 0 145 0 145 -35
-37 c-19 -20 -38 -34 -41 -30 -4 4 -11 73 -16 154 -9 139 -6 349 9 594 5 100
4 108 -16 128 -20 20 -63 30 -59 14z"/>
<path d="M1356 16929 c-4 -198 -5 -363 -3 -365 3 -3 15 -2 28 1 24 6 24 8 21
106 -2 67 1 105 9 115 9 11 51 14 223 14 175 0 215 3 234 16 21 15 22 20 22
194 0 198 6 228 52 237 15 3 28 12 28 19 0 10 -16 14 -62 14 l-63 0 -1 -220
c0 -121 -3 -223 -7 -226 -3 -3 -105 -3 -226 1 l-221 8 0 67 c0 36 2 69 5 72 3
3 7 57 8 121 2 93 5 119 20 134 30 34 22 53 -21 53 l-39 0 -7 -361z"/>
<path d="M1990 17262 c0 -12 3 -22 8 -22 284 -5 533 -15 615 -25 36 -5 37 -4
37 25 l0 30 -223 0 c-123 0 -272 3 -330 7 -105 6 -107 6 -107 -15z"/>
<path d="M711 16551 l-25 -7 29 -26 28 -26 255 1 c249 2 257 2 280 24 13 12
21 27 17 32 -7 12 -543 14 -584 2z"/>
<path d="M818 16263 c-44 -27 -50 -56 -46 -227 3 -155 3 -156 31 -183 l27 -28
765 0 765 0 27 28 c28 27 28 28 31 189 3 118 0 168 -9 186 -29 53 -9 52 -816
52 -684 -1 -750 -2 -775 -17z m236 -123 c17 -17 21 -33 21 -94 0 -81 -14 -109
-62 -121 -33 -8 -90 12 -103 35 -14 27 -12 153 3 172 34 43 103 47 141 8z
m210 0 c17 -17 21 -33 21 -94 0 -81 -14 -109 -62 -121 -33 -8 -90 12 -103 35
-14 27 -12 153 3 172 34 43 103 47 141 8z m300 0 c17 -17 21 -33 21 -94 0 -81
-14 -109 -62 -121 -33 -8 -90 12 -103 35 -14 27 -12 153 3 172 34 43 103 47
141 8z m208 2 c27 -27 35 -116 15 -165 -20 -47 -57 -63 -109 -47 -21 6 -42 19
-48 30 -14 27 -13 153 3 172 33 42 103 47 139 10z m302 -2 c17 -17 21 -33 21
-94 0 -81 -14 -109 -62 -121 -33 -8 -90 12 -103 35 -14 27 -12 153 3 172 34
43 103 47 141 8z m186 15 c38 -19 49 -59 25 -85 -17 -19 -17 -21 -1 -39 49
-54 -25 -126 -105 -102 -56 17 -77 65 -43 102 14 16 14 20 -1 43 -21 31 -12
61 23 81 35 19 66 19 102 0z"/>
<path d="M949 16113 c-8 -9 -14 -39 -14 -68 0 -61 16 -85 56 -85 35 0 49 24
49 85 0 25 -5 55 -10 66 -13 24 -62 25 -81 2z"/>
<path d="M1159 16113 c-8 -9 -14 -39 -14 -68 0 -61 16 -85 56 -85 35 0 49 24
49 85 0 25 -5 55 -10 66 -13 24 -62 25 -81 2z"/>
<path d="M1459 16113 c-8 -9 -14 -39 -14 -68 0 -61 16 -85 56 -85 35 0 49 24
49 85 0 25 -5 55 -10 66 -13 24 -62 25 -81 2z"/>
<path d="M1669 16113 c-8 -9 -14 -39 -14 -68 0 -61 16 -85 56 -85 35 0 49 24
49 85 0 25 -5 55 -10 66 -13 24 -62 25 -81 2z"/>
<path d="M1970 16115 c-18 -22 -23 -96 -8 -125 16 -30 59 -38 82 -15 18 19 22
105 6 136 -13 23 -62 26 -80 4z"/>
<path d="M3365 14569 c-49 -28 -60 -84 -25 -119 l21 -21 -21 -17 c-34 -27 -32
-88 4 -118 22 -20 38 -24 87 -24 54 0 64 3 90 29 36 36 38 73 5 106 l-23 23
20 21 c27 26 26 76 -1 103 -25 25 -124 36 -157 17z"/>
<path d="M3700 14425 l0 -155 25 0 25 0 0 155 0 155 -25 0 -25 0 0 -155z"/>
<path d="M5171 14514 c-17 -36 -31 -68 -31 -70 0 -2 12 -4 26 -4 21 0 29 9 47
50 13 28 26 48 30 44 4 -4 7 -65 7 -136 l0 -128 25 0 25 0 0 155 0 155 -49 0
-49 0 -31 -66z"/>
<path d="M4110 14520 c0 -27 -3 -30 -31 -30 -26 0 -30 -3 -27 -22 2 -17 11
-24 31 -26 27 -3 27 -4 27 -77 0 -82 9 -95 69 -95 24 0 31 4 31 19 0 13 -8 21
-22 23 -21 3 -23 9 -26 66 l-3 62 46 0 45 0 0 -69 c0 -83 13 -101 71 -101 32
0 39 4 39 19 0 14 -8 21 -27 23 -27 3 -28 6 -31 66 l-3 62 31 0 c25 0 30 4 30
25 0 21 -5 25 -30 25 -27 0 -30 3 -30 30 0 25 -4 30 -25 30 -21 0 -25 -5 -25
-30 0 -29 -2 -30 -45 -30 -43 0 -45 1 -45 30 0 25 -4 30 -25 30 -21 0 -25 -5
-25 -30z"/>
<path d="M3858 14475 c-54 -30 -61 -133 -13 -181 41 -41 165 -26 165 20 0 21
-31 28 -50 11 -28 -25 -90 -12 -90 20 0 12 16 15 75 15 l75 0 0 36 c0 75 -89
118 -162 79z"/>
<path d="M4448 14475 c-54 -30 -61 -133 -13 -181 41 -41 165 -26 165 20 0 21
-31 28 -50 11 -28 -25 -90 -12 -90 20 0 12 16 15 75 15 l75 0 0 36 c0 75 -89
118 -162 79z"/>
<path d="M4842 14474 c-27 -19 -29 -64 -3 -88 10 -9 35 -19 55 -23 62 -10 75
-53 16 -53 -17 0 -34 8 -42 19 -10 14 -18 16 -36 10 -19 -7 -21 -12 -12 -29
15 -28 42 -40 94 -40 98 0 121 106 28 126 -47 10 -74 24 -70 37 6 18 57 21 64
4 3 -9 14 -12 30 -9 30 5 30 15 2 42 -27 25 -93 27 -126 4z"/>
<path d="M660 13840 l0 -620 54 0 55 0 3 -155 c3 -154 3 -155 31 -182 l27 -28
730 0 730 0 27 28 c28 27 28 28 31 182 l3 155 255 0 254 0 0 620 0 620 -1100
0 -1100 0 0 -620z m394 -670 c17 -17 21 -33 21 -94 0 -81 -14 -109 -62 -121
-33 -8 -90 12 -103 35 -14 27 -12 153 3 172 34 43 103 47 141 8z m208 2 c27
-27 35 -116 15 -165 -20 -47 -57 -63 -109 -47 -21 6 -42 19 -48 30 -14 27 -13
153 3 172 33 42 103 47 139 10z m300 0 c27 -27 35 -116 15 -165 -20 -47 -57
-63 -109 -47 -21 6 -42 19 -48 30 -14 27 -13 153 3 172 33 42 103 47 139 10z
m212 -2 c17 -17 21 -33 21 -94 0 -81 -14 -109 -62 -121 -33 -8 -90 12 -103 35
-14 27 -12 153 3 172 34 43 103 47 141 8z m430 0 c39 -39 15 -111 -42 -125
-34 -8 -72 -32 -72 -45 0 -6 29 -10 65 -10 51 0 65 -3 65 -15 0 -12 -16 -15
-86 -15 l-86 0 6 32 c8 42 31 66 78 80 46 14 64 39 48 68 -16 30 -67 27 -82
-5 -14 -32 -38 -33 -38 -2 0 24 21 49 50 60 24 10 74 -2 94 -23z"/>
<path d="M949 13143 c-8 -9 -14 -39 -14 -68 0 -61 16 -85 56 -85 35 0 49 24
49 85 0 25 -5 55 -10 66 -13 24 -62 25 -81 2z"/>
<path d="M1159 13143 c-8 -9 -14 -39 -14 -68 0 -61 16 -85 56 -85 35 0 49 24
49 85 0 25 -5 55 -10 66 -13 24 -62 25 -81 2z"/>
<path d="M1459 13143 c-8 -9 -14 -39 -14 -68 0 -61 16 -85 56 -85 35 0 49 24
49 85 0 25 -5 55 -10 66 -13 24 -62 25 -81 2z"/>
<path d="M1669 13143 c-8 -9 -14 -39 -14 -68 0 -61 16 -85 56 -85 35 0 49 24
49 85 0 25 -5 55 -10 66 -13 24 -62 25 -81 2z"/>
<path d="M659 11697 c-69 -53 -38 -157 46 -157 20 0 45 5 56 10 17 10 19 7 19
-24 0 -63 -70 -88 -114 -41 -28 30 -46 32 -39 5 14 -53 115 -69 158 -25 23 22
25 32 25 110 0 78 -2 88 -25 110 -18 19 -35 25 -67 25 -24 0 -50 -6 -59 -13z"/>
<path d="M991 11693 c-47 -38 -50 -185 -5 -230 18 -18 34 -23 71 -23 78 1 103
33 103 134 0 76 -13 109 -47 125 -36 17 -98 13 -122 -6z m113 -24 c24 -19 26
-26 26 -94 0 -68 -2 -75 -26 -94 -63 -50 -124 -4 -124 94 0 96 62 143 124 94z"/>
<path d="M1210 11575 c0 -113 2 -135 15 -135 11 0 15 11 15 40 0 22 4 40 8 40
4 0 26 -18 47 -40 21 -22 48 -40 60 -40 16 1 9 11 -33 49 l-54 48 53 44 c39
33 48 45 35 47 -9 2 -37 -15 -64 -40 l-47 -43 -3 83 c-2 64 -6 82 -17 82 -12
0 -15 -23 -15 -135z"/>
<path d="M1800 11575 c0 -113 2 -135 15 -135 8 0 15 7 15 16 0 14 2 14 22 0
34 -24 85 -20 113 9 19 18 25 35 25 70 0 35 -6 52 -25 70 -28 29 -79 33 -113
9 -22 -15 -22 -15 -22 40 0 43 -3 56 -15 56 -13 0 -15 -22 -15 -135z m141 16
c48 -39 19 -131 -43 -131 -65 0 -94 88 -42 129 33 26 55 26 85 2z"/>
<path d="M2536 11688 c-29 -27 -44 -68 -24 -68 8 0 19 13 25 30 22 59 115 47
121 -16 4 -36 -14 -54 -80 -78 -56 -20 -67 -33 -75 -80 l-6 -36 97 0 c79 0 96
3 96 15 0 12 -16 15 -81 15 -71 0 -80 2 -77 18 2 9 29 30 64 47 83 40 94 51
94 92 0 74 -97 112 -154 61z"/>
<path d="M2766 11687 c-45 -45 -42 -192 5 -229 21 -18 82 -24 114 -12 28 11
45 60 45 129 0 100 -25 134 -98 135 -32 0 -49 -6 -66 -23z m114 -17 c16 -16
20 -33 20 -95 0 -62 -4 -79 -20 -95 -25 -25 -61 -26 -91 -1 -21 17 -24 27 -24
96 0 69 3 79 24 96 30 25 66 24 91 -1z"/>
<path d="M3006 11688 c-29 -27 -44 -68 -24 -68 8 0 19 13 25 30 22 59 115 47
121 -16 4 -36 -14 -54 -80 -78 -56 -20 -67 -33 -75 -80 l-6 -36 97 0 c79 0 96
3 96 15 0 12 -16 15 -81 15 -71 0 -80 2 -77 18 2 9 29 30 64 47 83 40 94 51
94 92 0 74 -97 112 -154 61z"/>
<path d="M3210 11695 c0 -12 15 -15 78 -15 l77 -1 -52 -32 c-38 -23 -52 -38
-53 -54 0 -20 5 -23 38 -23 45 0 62 -14 62 -51 0 -31 -31 -59 -65 -59 -29 0
-65 28 -65 51 0 10 -7 19 -15 19 -23 0 -18 -38 10 -65 18 -19 35 -25 70 -25
35 0 52 6 70 25 48 47 20 125 -45 125 -43 0 -37 11 20 45 37 22 50 35 50 52 0
22 -3 23 -90 23 -73 0 -90 -3 -90 -15z"/>
<path d="M1607 11619 c-27 -16 -48 -72 -41 -109 14 -67 110 -95 159 -45 19 18
25 35 25 70 0 60 -32 95 -87 95 -21 0 -46 -5 -56 -11z m94 -28 c16 -13 23 -29
23 -54 0 -72 -71 -104 -113 -51 -28 35 -26 69 4 99 29 30 55 32 86 6z"/>
<path d="M2077 11619 c-27 -16 -48 -72 -41 -109 14 -65 109 -95 156 -48 26 26
7 39 -21 14 -25 -23 -67 -20 -91 6 -37 39 -27 48 55 48 l75 0 0 29 c0 55 -81
90 -133 60z"/>
<path d="M2040 10770 c0 -5 3 -9 8 -9 19 3 23 -2 12 -16 -11 -13 -10 -14 2
-10 8 3 24 -6 36 -20 12 -14 26 -25 31 -25 5 0 12 -7 15 -16 3 -8 2 -12 -4 -9
-6 3 -10 -1 -10 -10 0 -10 6 -15 13 -12 7 3 24 -4 38 -14 13 -10 20 -19 15
-19 -5 0 1 -8 12 -18 14 -13 20 -27 17 -42 -3 -18 -2 -21 7 -12 21 21 29 13
25 -23 -2 -19 -1 -32 4 -30 4 3 10 1 13 -4 7 -10 -22 -24 -34 -16 -5 3 -7 14
-5 25 2 12 0 18 -5 15 -4 -3 -11 1 -14 7 -4 7 -4 -1 -1 -19 4 -27 2 -31 -13
-27 -11 4 -13 3 -5 -3 7 -5 9 -14 4 -21 -6 -9 -13 -3 -24 20 -14 28 -17 30
-17 11 0 -13 5 -23 10 -23 6 0 10 -4 10 -9 0 -15 -41 -4 -55 15 -6 9 -17 14
-23 10 -6 -3 -18 1 -26 10 -9 9 -23 13 -32 10 -8 -3 -12 -2 -9 3 3 5 1 12 -5
16 -5 3 -10 2 -10 -4 0 -13 -84 -5 -88 8 -2 5 -9 8 -16 5 -7 -3 -19 2 -26 11
-7 8 -18 15 -24 15 -6 0 -3 -5 8 -11 14 -9 15 -13 6 -19 -16 -10 -62 -2 -71
12 -4 7 -9 5 -12 -3 -4 -12 -7 -11 -16 1 -8 12 -11 12 -11 1 0 -13 -14 -12
-52 4 -11 4 -18 3 -18 -5 0 -6 6 -8 13 -4 6 4 4 -2 -6 -12 -11 -12 -31 -19
-56 -19 -29 0 -37 -3 -30 -11 7 -8 0 -12 -23 -11 -18 0 -42 -4 -52 -8 -15 -7
-18 -5 -12 6 5 10 3 9 -6 -1 -7 -9 -31 -25 -53 -36 -41 -21 -129 -119 -120
-133 2 -5 -4 -33 -14 -62 -18 -49 -20 -51 -20 -22 -1 17 4 35 9 38 6 4 9 12 8
18 -4 16 23 97 33 97 4 0 5 10 1 22 -3 13 -1 19 5 15 6 -4 8 3 5 18 -3 16 0
25 8 25 7 0 10 7 6 15 -3 8 1 21 9 28 7 8 10 19 6 26 -7 11 -20 -14 -106 -204
-15 -33 -29 -55 -32 -48 -2 7 1 21 7 32 12 24 3 27 -23 6 -11 -7 -25 -11 -33
-8 -9 3 -14 0 -12 -7 2 -7 -3 -15 -11 -18 -10 -3 -12 0 -7 13 3 10 1 24 -5 32
-9 10 -9 20 0 40 6 14 9 28 6 31 -2 3 0 11 5 17 7 8 4 20 -9 37 -15 19 -17 28
-9 36 17 17 3 25 -21 12 -20 -10 -21 -19 -21 -140 0 -117 2 -129 17 -123 11 4
14 3 9 -5 -5 -8 3 -14 23 -18 17 -4 36 -13 42 -20 9 -12 6 -12 -22 -3 -19 7
-38 16 -44 20 -20 19 -25 7 -24 -53 0 -35 3 -57 6 -50 2 6 10 12 18 12 7 0 19
7 26 17 13 15 12 15 -8 5 -15 -8 -24 -9 -28 -2 -4 6 -3 10 2 9 4 -1 15 -1 23
0 12 1 11 5 -4 16 -11 8 -15 15 -9 15 7 0 15 -5 18 -10 4 -6 10 -8 15 -5 4 3
7 -5 6 -18 -2 -14 2 -24 10 -24 7 0 11 4 8 9 -3 4 0 8 6 8 7 0 10 7 6 15 -3 8
-1 15 4 15 6 0 11 -21 11 -47 1 -27 3 -58 4 -71 18 -169 24 -221 30 -242 2 -8
7 -64 11 -125 3 -60 8 -121 10 -135 2 -14 6 -54 9 -90 4 -36 11 -83 16 -105 4
-22 9 -43 9 -46 0 -12 -52 -29 -90 -29 -21 0 -42 -4 -45 -10 -4 -6 6 -7 27 -3
18 3 30 3 27 -1 -9 -10 -109 -36 -109 -28 0 3 12 19 27 34 26 28 27 28 4 28
-12 0 -19 -4 -16 -10 3 -5 1 -10 -5 -10 -7 0 -9 15 -6 40 3 22 1 40 -5 40 -5
0 -9 -42 -9 -94 l0 -95 -155 -3 c-154 -3 -155 -3 -182 -31 l-28 -27 0 -170 0
-170 28 -27 c27 -28 28 -28 182 -31 l155 -3 0 -55 0 -54 620 0 620 0 0 644 c0
472 -3 647 -11 652 -7 4 -33 -16 -64 -50 -50 -54 -77 -68 -90 -46 -10 17 5 49
26 55 10 4 19 13 19 20 0 8 22 33 49 56 27 23 47 48 44 54 -2 7 3 15 11 18 12
5 16 22 16 77 0 42 -4 70 -10 70 -26 0 -112 -121 -147 -205 -20 -49 -31 -65
-46 -65 -21 0 -21 -2 1 101 4 19 30 70 57 112 49 74 51 76 95 79 l45 3 3 313
2 312 -45 0 c-29 0 -44 -4 -40 -10 4 -6 11 -7 17 -4 7 5 8 2 4 -5 -6 -9 -12
-9 -25 3 -14 13 -42 16 -134 16 -71 0 -117 -4 -117 -10z m-38 -809 c-6 -17 -8
-30 -4 -28 4 1 21 -10 37 -25 16 -16 38 -28 47 -28 10 0 18 -5 18 -11 0 -6 9
-9 20 -6 21 5 24 -3 14 -40 -6 -24 -26 -33 -21 -11 1 7 -15 21 -36 32 -49 24
-89 11 -79 -26 5 -21 4 -22 -11 -9 -15 11 -17 11 -17 -2 0 -10 19 -19 60 -28
58 -13 76 -31 44 -43 -9 -3 -19 -4 -24 -1 -4 3 -10 -1 -13 -8 -3 -8 6 -13 26
-14 50 -4 63 -24 48 -75 -22 -73 -73 -167 -120 -222 -112 -131 -131 -171 -100
-212 5 -5 6 -20 2 -32 -5 -22 -8 -22 -212 -22 l-207 0 1 33 c1 18 5 39 9 45 4
7 9 22 12 34 5 23 8 40 19 128 4 24 8 47 11 49 7 7 63 -50 86 -87 11 -18 22
-31 25 -28 12 12 -11 67 -48 111 -37 44 -40 52 -34 89 4 23 11 45 16 50 4 5 4
16 -1 26 -5 9 -5 22 0 30 4 7 6 20 3 29 -4 14 -3 14 6 1 10 -13 12 -13 21 0 5
8 10 20 10 25 0 15 52 43 68 38 7 -3 26 0 42 6 17 6 30 6 30 1 0 -16 -39 -31
-65 -24 -16 4 -25 2 -25 -6 0 -7 7 -10 15 -6 8 3 15 2 15 -2 0 -5 11 -8 24 -8
14 0 24 4 23 9 -1 5 5 11 13 12 8 2 24 7 34 11 19 7 19 7 3 -16 -17 -25 -23
-85 -9 -93 4 -3 25 1 47 9 22 8 58 17 79 20 33 4 43 2 58 -18 l18 -23 -6 35
c-4 19 -11 43 -15 52 -14 27 -10 43 6 22 14 -18 14 -18 8 4 -5 22 10 31 22 12
3 -5 11 -10 16 -10 5 0 2 12 -8 28 -17 27 -17 27 2 12 19 -14 19 -14 6 3 -8
10 -20 16 -27 13 -7 -3 -17 8 -24 25 -13 31 -30 39 -30 13 0 -10 -7 -14 -17
-12 -10 2 -17 10 -15 18 8 33 -48 34 -77 0 -35 -39 -161 -50 -175 -14 -4 11 9
14 75 14 73 0 81 2 75 18 -5 14 -4 14 9 -2 8 -11 15 -15 15 -10 0 15 -45 55
-53 47 -4 -3 -7 -2 -7 3 0 11 -120 11 -138 0 -7 -4 -10 -12 -7 -17 4 -5 -5 -9
-19 -9 -19 0 -26 5 -26 18 0 22 37 59 47 48 4 -4 1 -11 -7 -16 -32 -20 -1 -17
62 5 46 16 79 22 106 18 42 -6 87 15 87 40 0 7 14 12 32 13 17 0 37 5 45 11
12 10 59 22 67 16 2 -1 -1 -16 -7 -32z m-948 -951 c17 -17 21 -33 21 -94 0
-81 -14 -109 -62 -121 -33 -8 -90 12 -103 35 -14 27 -12 153 3 172 34 43 103
47 141 8z m208 2 c27 -27 35 -116 15 -165 -20 -47 -57 -63 -109 -47 -21 6 -42
19 -48 30 -14 27 -13 153 3 172 33 42 103 47 139 10z m300 0 c27 -27 35 -116
15 -165 -20 -47 -57 -63 -109 -47 -21 6 -42 19 -48 30 -14 27 -13 153 3 172
33 42 103 47 139 10z m212 -2 c17 -17 21 -33 21 -94 0 -81 -14 -109 -62 -121
-33 -8 -90 12 -103 35 -14 27 -12 153 3 172 34 43 103 47 141 8z m430 0 c39
-39 15 -111 -42 -125 -34 -8 -72 -32 -72 -45 0 -6 29 -10 65 -10 51 0 65 -3
65 -15 0 -12 -16 -15 -86 -15 l-86 0 6 32 c8 42 31 66 78 80 46 14 64 39 48
68 -16 30 -67 27 -82 -5 -14 -32 -38 -33 -38 -2 0 24 21 49 50 60 24 10 74 -2
94 -23z"/>
<path d="M1744 9565 c-15 -19 -33 -35 -40 -35 -15 0 -36 -34 -28 -43 3 -3 12
-3 20 0 7 3 27 0 43 -5 19 -7 31 -7 33 -1 4 13 85 22 93 10 4 -7 14 -6 30 1
18 8 28 8 39 -1 22 -19 66 -21 66 -4 0 8 -4 12 -9 9 -11 -7 -32 40 -25 59 5
11 -1 15 -20 15 -24 0 -32 -12 -27 -42 2 -12 -64 -9 -76 3 -17 17 -3 51 18 46
11 -3 16 -1 13 4 -3 5 -21 7 -40 3 -20 -4 -40 -2 -48 5 -11 9 -20 4 -42 -24z"/>
<path d="M949 8983 c-8 -9 -14 -39 -14 -68 0 -61 16 -85 56 -85 35 0 49 24 49
85 0 25 -5 55 -10 66 -13 24 -62 25 -81 2z"/>
<path d="M1159 8983 c-8 -9 -14 -39 -14 -68 0 -61 16 -85 56 -85 35 0 49 24
49 85 0 25 -5 55 -10 66 -13 24 -62 25 -81 2z"/>
<path d="M1459 8983 c-8 -9 -14 -39 -14 -68 0 -61 16 -85 56 -85 35 0 49 24
49 85 0 25 -5 55 -10 66 -13 24 -62 25 -81 2z"/>
<path d="M1669 8983 c-8 -9 -14 -39 -14 -68 0 -61 16 -85 56 -85 35 0 49 24
49 85 0 25 -5 55 -10 66 -13 24 -62 25 -81 2z"/>
<path d="M5576 10440 c-52 -10 -76 -40 -76 -96 0 -54 23 -78 94 -95 72 -16 88
-27 84 -52 -2 -18 -11 -23 -45 -25 -36 -3 -44 1 -59 22 -12 20 -25 26 -50 26
-19 0 -34 -5 -34 -11 0 -29 34 -78 63 -91 43 -18 115 -15 154 5 53 28 66 118
22 154 -8 6 -47 21 -87 33 -63 19 -73 25 -70 44 4 31 72 36 90 7 9 -14 23 -21
45 -21 28 0 33 4 33 23 -1 58 -76 93 -164 77z"/>
<path d="M3337 10433 c-4 -3 -7 -78 -7 -166 l0 -159 95 4 c75 3 101 8 122 24
41 30 63 81 63 142 0 116 -54 161 -191 162 -42 0 -79 -3 -82 -7z m179 -84 c13
-15 18 -36 18 -76 0 -67 -23 -93 -85 -93 l-39 0 0 95 0 95 43 0 c32 0 49 -6
63 -21z"/>
<path d="M3768 10308 c-3 -132 -3 -133 -27 -136 -26 -4 -41 12 -41 46 0 19 -5
22 -35 22 -32 0 -35 -2 -35 -29 0 -76 54 -119 132 -106 73 13 78 25 78 190 l0
145 -35 0 -34 0 -3 -132z"/>
<path d="M4007 10433 c-4 -3 -7 -78 -7 -165 l0 -158 35 0 35 0 1 128 c1 137 2
136 39 -30 l22 -98 37 0 36 0 24 108 c35 158 41 162 34 20 l-6 -128 37 0 36 0
0 166 0 165 -52 -3 -52 -3 -13 -55 c-8 -30 -21 -80 -30 -110 l-16 -55 -9 35
c-5 19 -18 70 -30 113 l-20 77 -47 0 c-26 0 -51 -3 -54 -7z"/>
<path d="M4630 10275 l0 -165 35 0 35 0 0 165 0 165 -35 0 -35 0 0 -165z"/>
<path d="M7188 10434 c-5 -4 -8 -79 -8 -166 l0 -158 40 0 40 0 0 55 0 55 33 0
c53 0 106 19 123 45 9 13 16 45 16 71 0 37 -6 52 -26 73 -24 24 -35 26 -119
29 -50 2 -95 0 -99 -4z"/>
<path d="M4406 10339 c-15 -12 -26 -30 -26 -45 0 -20 5 -24 29 -24 16 0 31 6
35 15 7 19 66 20 66 1 0 -14 -29 -26 -66 -26 -12 0 -33 -9 -48 -21 -53 -42
-25 -133 41 -131 16 1 55 1 89 2 l60 0 -3 93 c-2 50 -6 101 -8 113 -10 45
-121 61 -169 23z"/>
<path d="M4776 10339 c-15 -12 -26 -30 -26 -45 0 -20 5 -24 29 -24 16 0 31 6
35 15 7 19 66 20 66 1 0 -14 -29 -26 -66 -26 -12 0 -33 -9 -48 -21 -53 -42
-25 -133 41 -131 16 1 55 1 89 2 l60 0 -3 93 c-2 50 -6 101 -8 113 -10 45
-121 61 -169 23z"/>
<path d="M5048 10353 l-48 -4 0 -120 0 -119 35 0 35 0 0 84 c0 87 12 115 45
102 12 -4 15 -24 15 -96 l0 -90 35 0 35 0 0 68 c0 80 7 109 27 116 32 13 43
-13 43 -100 l0 -84 35 0 35 0 0 100 c0 94 -2 103 -25 125 -27 28 -70 33 -101
11 -17 -12 -22 -12 -39 0 -18 14 -30 14 -127 7z"/>
<path d="M5816 10339 c-15 -12 -26 -30 -26 -45 0 -20 5 -24 29 -24 16 0 31 6
35 15 7 19 66 20 66 1 0 -14 -29 -26 -66 -26 -12 0 -33 -9 -48 -21 -53 -42
-25 -133 41 -131 16 1 55 1 88 2 l61 0 -4 103 c-3 94 -5 104 -28 125 -34 30
-110 31 -148 1z"/>
<path d="M6088 10353 l-48 -4 0 -120 0 -119 35 0 35 0 0 84 c0 87 12 115 45
102 12 -4 15 -24 15 -96 l0 -90 35 0 35 0 0 68 c0 80 7 109 27 116 32 13 43
-13 43 -100 l0 -84 35 0 35 0 0 100 c0 94 -2 103 -25 125 -27 28 -70 33 -101
11 -17 -12 -22 -12 -39 0 -18 14 -30 14 -127 7z"/>
<path d="M6526 10353 c-3 -4 -27 -6 -51 -4 l-45 2 0 -166 0 -165 35 0 35 0 0
49 0 50 29 -9 c43 -12 78 -1 107 33 24 28 26 37 22 100 -3 61 -7 72 -31 93
-27 23 -85 33 -101 17z"/>
<path d="M6726 10339 c-15 -12 -26 -30 -26 -45 0 -20 5 -24 29 -24 16 0 31 6
35 15 7 19 66 20 66 1 0 -14 -29 -26 -66 -26 -12 0 -33 -9 -48 -21 -53 -42
-25 -133 41 -131 16 1 55 1 88 2 l61 0 -4 103 c-3 94 -5 104 -28 125 -34 30
-110 31 -148 1z"/>
<path d="M7496 10339 c-15 -12 -26 -30 -26 -45 0 -20 5 -24 29 -24 16 0 31 6
35 15 7 19 66 20 66 1 0 -14 -29 -26 -66 -26 -12 0 -33 -9 -48 -21 -53 -42
-25 -133 41 -131 16 1 55 1 89 2 l60 0 -3 93 c-2 50 -6 101 -8 113 -10 45
-121 61 -169 23z"/>
<path d="M7757 10349 c-28 -16 -47 -64 -47 -118 0 -42 5 -56 29 -83 26 -29 35
-33 81 -32 41 0 50 -3 48 -15 -4 -19 -56 -27 -71 -12 -6 6 -28 11 -48 11 -37
0 -38 0 -28 -29 12 -35 46 -51 104 -51 55 0 90 15 104 47 6 13 11 79 11 152
l0 128 -61 7 c-82 8 -101 7 -122 -5z"/>
<path d="M6950 10230 l0 -120 35 0 35 0 0 120 0 120 -35 0 -35 0 0 -120z"/>
<path d="M7990 10230 l0 -120 35 0 35 0 0 120 0 120 -35 0 -35 0 0 -120z"/>
<path d="M630 7480 c0 -64 2 -70 20 -70 12 0 31 7 44 15 47 31 94 -11 84 -76
-8 -57 -100 -64 -121 -9 -11 28 -37 42 -37 20 0 -20 29 -68 45 -74 39 -15 96
-6 120 19 72 71 -21 197 -103 139 -22 -15 -22 -15 -22 30 l0 46 70 0 c56 0 70
3 70 15 0 12 -16 15 -85 15 l-85 0 0 -70z"/>
<path d="M991 7533 c-47 -38 -50 -185 -5 -230 18 -18 34 -23 71 -23 78 1 103
33 103 134 0 76 -13 109 -47 125 -36 17 -98 13 -122 -6z m113 -24 c24 -19 26
-26 26 -94 0 -68 -2 -75 -26 -94 -63 -50 -124 -4 -124 94 0 96 62 143 124 94z"/>
<path d="M1210 7415 c0 -113 2 -135 15 -135 11 0 15 11 15 40 0 22 4 40 8 40
4 0 26 -18 47 -40 21 -22 48 -40 60 -40 16 1 9 11 -33 49 l-54 48 53 44 c39
33 48 45 35 47 -9 2 -37 -15 -64 -40 l-47 -43 -3 83 c-2 64 -6 82 -17 82 -12
0 -15 -23 -15 -135z"/>
<path d="M1800 7415 c0 -113 2 -135 15 -135 8 0 15 7 15 16 0 14 2 14 22 0 34
-24 85 -20 113 9 19 18 25 35 25 70 0 35 -6 52 -25 70 -28 29 -79 33 -113 9
-22 -15 -22 -15 -22 40 0 43 -3 56 -15 56 -13 0 -15 -22 -15 -135z m141 16
c48 -39 19 -131 -43 -131 -65 0 -94 88 -42 129 33 26 55 26 85 2z"/>
<path d="M2536 7528 c-29 -27 -44 -68 -24 -68 8 0 19 13 25 30 22 59 115 47
121 -16 4 -36 -14 -54 -80 -78 -56 -20 -67 -33 -75 -80 l-6 -36 97 0 c79 0 96
3 96 15 0 12 -16 15 -81 15 -71 0 -80 2 -77 18 2 9 29 30 64 47 83 40 94 51
94 92 0 74 -97 112 -154 61z"/>
<path d="M2766 7527 c-45 -45 -42 -192 5 -229 21 -18 82 -24 114 -12 28 11 45
60 45 129 0 100 -25 134 -98 135 -32 0 -49 -6 -66 -23z m114 -17 c16 -16 20
-33 20 -95 0 -62 -4 -79 -20 -95 -25 -25 -61 -26 -91 -1 -21 17 -24 27 -24 96
0 69 3 79 24 96 30 25 66 24 91 -1z"/>
<path d="M3006 7528 c-29 -27 -44 -68 -24 -68 8 0 19 13 25 30 22 59 115 47
121 -16 4 -36 -14 -54 -80 -78 -56 -20 -67 -33 -75 -80 l-6 -36 97 0 c79 0 96
3 96 15 0 12 -16 15 -81 15 -71 0 -80 2 -77 18 2 9 29 30 64 47 83 40 94 51
94 92 0 74 -97 112 -154 61z"/>
<path d="M3210 7535 c0 -12 15 -15 78 -15 l77 -1 -52 -32 c-38 -23 -52 -38
-53 -54 0 -20 5 -23 38 -23 45 0 62 -14 62 -51 0 -31 -31 -59 -65 -59 -29 0
-65 28 -65 51 0 10 -7 19 -15 19 -23 0 -18 -38 10 -65 18 -19 35 -25 70 -25
35 0 52 6 70 25 48 47 20 125 -45 125 -43 0 -37 11 20 45 37 22 50 35 50 52 0
22 -3 23 -90 23 -73 0 -90 -3 -90 -15z"/>
<path d="M1607 7459 c-27 -16 -48 -72 -41 -109 14 -67 110 -95 159 -45 19 18
25 35 25 70 0 60 -32 95 -87 95 -21 0 -46 -5 -56 -11z m94 -28 c16 -13 23 -29
23 -54 0 -72 -71 -104 -113 -51 -28 35 -26 69 4 99 29 30 55 32 86 6z"/>
<path d="M2077 7459 c-27 -16 -48 -72 -41 -109 14 -65 109 -95 156 -48 26 26
7 39 -21 14 -25 -23 -67 -20 -91 6 -37 39 -27 48 55 48 l75 0 0 29 c0 55 -81
90 -133 60z"/>
<path d="M3310 6235 c0 -23 4 -25 45 -25 l45 0 0 -130 0 -130 30 0 30 0 0 130
0 130 46 0 c41 0 45 2 42 23 -3 21 -7 22 -120 25 l-118 3 0 -26z"/>
<path d="M3800 6105 l0 -155 24 0 c22 0 24 4 28 69 4 73 24 111 58 111 35 0
50 -33 50 -108 0 -70 1 -72 25 -72 24 0 25 2 25 75 0 79 -16 127 -45 139 -28
10 -60 7 -81 -9 -31 -23 -34 -19 -34 45 0 57 -1 60 -25 60 l-25 0 0 -155z"/>
<path d="M4721 6194 c-17 -36 -31 -68 -31 -70 0 -2 12 -4 26 -4 21 0 29 9 47
50 13 28 26 48 30 44 4 -4 7 -65 7 -136 l0 -128 25 0 25 0 0 155 0 155 -49 0
-49 0 -31 -66z"/>
<path d="M3576 6149 c-31 -25 -33 -36 -5 -44 13 -5 25 -1 33 10 18 24 70 17
74 -11 3 -19 -3 -22 -54 -26 -40 -3 -61 -10 -70 -23 -21 -29 -17 -72 8 -89 29
-20 92 -21 108 -1 12 14 15 14 30 0 24 -22 60 -20 60 4 0 10 -7 21 -15 25 -11
4 -15 22 -15 70 0 58 -3 67 -26 85 -16 13 -41 21 -64 21 -23 0 -48 -8 -64 -21z"/>
<path d="M4096 6149 c-31 -25 -33 -36 -5 -44 13 -5 25 -1 33 10 18 24 70 17
74 -11 3 -19 -3 -22 -54 -26 -40 -3 -61 -10 -70 -23 -21 -29 -17 -72 8 -89 29
-20 92 -21 108 -1 12 14 15 14 30 0 24 -22 60 -20 60 4 0 10 -7 21 -15 25 -11
4 -15 22 -15 70 0 58 -3 67 -26 85 -16 13 -41 21 -64 21 -23 0 -48 -8 -64 -21z"/>
<path d="M4320 6015 l0 -155 25 0 c24 0 25 3 25 53 0 61 6 72 27 52 24 -24 90
-19 118 9 69 69 28 196 -63 196 -23 0 -45 -6 -52 -15 -7 -8 -16 -15 -21 -15
-5 0 -9 7 -9 15 0 9 -9 15 -25 15 l-25 0 0 -155z"/>
<path d="M835 4981 c-11 -5 -29 -19 -40 -31 -18 -20 -20 -36 -20 -191 l0 -169
28 -27 27 -28 756 -3 756 -2 34 34 35 35 -3 167 -3 166 -33 29 -32 29 -743 -1
c-408 0 -751 -4 -762 -8z m219 -131 c17 -17 21 -33 21 -94 0 -81 -14 -109 -62
-121 -33 -8 -90 12 -103 35 -14 27 -12 153 3 172 34 43 103 47 141 8z m208 2
c27 -27 35 -116 15 -165 -20 -47 -57 -63 -109 -47 -21 6 -42 19 -48 30 -14 27
-13 153 3 172 33 42 103 47 139 10z m300 0 c27 -27 35 -116 15 -165 -20 -47
-57 -63 -109 -47 -21 6 -42 19 -48 30 -14 27 -13 153 3 172 33 42 103 47 139
10z m212 -2 c17 -17 21 -33 21 -94 0 -81 -14 -109 -62 -121 -33 -8 -90 12
-103 35 -14 27 -12 153 3 172 34 43 103 47 141 8z m288 3 c24 -21 24 -85 1
-105 -10 -9 -29 -19 -43 -23 -34 -10 -70 -33 -70 -45 0 -6 29 -10 65 -10 51 0
65 -3 65 -15 0 -12 -16 -15 -86 -15 l-86 0 6 32 c8 42 31 66 78 80 46 14 64
39 48 68 -16 30 -67 27 -82 -5 -14 -32 -38 -33 -38 -2 0 24 21 49 50 60 23 9
72 -1 92 -20z m202 -3 c39 -39 15 -111 -42 -125 -34 -8 -72 -32 -72 -45 0 -6
29 -10 65 -10 51 0 65 -3 65 -15 0 -12 -16 -15 -86 -15 l-86 0 6 32 c8 42 31
66 78 80 46 14 64 39 48 68 -16 30 -67 27 -82 -5 -14 -32 -38 -33 -38 -2 0 24
21 49 50 60 24 10 74 -2 94 -23z"/>
<path d="M949 4823 c-8 -9 -14 -39 -14 -68 0 -61 16 -85 56 -85 35 0 49 24 49
85 0 25 -5 55 -10 66 -13 24 -62 25 -81 2z"/>
<path d="M1159 4823 c-8 -9 -14 -39 -14 -68 0 -61 16 -85 56 -85 35 0 49 24
49 85 0 25 -5 55 -10 66 -13 24 -62 25 -81 2z"/>
<path d="M1459 4823 c-8 -9 -14 -39 -14 -68 0 -61 16 -85 56 -85 35 0 49 24
49 85 0 25 -5 55 -10 66 -13 24 -62 25 -81 2z"/>
<path d="M1669 4823 c-8 -9 -14 -39 -14 -68 0 -61 16 -85 56 -85 35 0 49 24
49 85 0 25 -5 55 -10 66 -13 24 -62 25 -81 2z"/>
<path d="M5382 3218 c-8 -8 -12 -50 -12 -125 l0 -113 -114 0 c-89 0 -116 -3
-126 -15 -10 -12 -10 -18 0 -30 10 -12 37 -15 126 -15 l114 0 0 -114 c0 -89 3
-116 15 -126 12 -10 18 -10 30 0 12 10 15 37 15 126 l0 114 114 0 c89 0 116 3
126 15 10 12 10 18 0 30 -10 12 -37 15 -126 15 l-114 0 0 113 c0 104 -7 137
-30 137 -3 0 -11 -5 -18 -12z"/>
<path d="M9309 2890 c-95 -11 -109 -45 -109 -270 0 -276 -1 -275 281 -275 185
0 199 1 226 21 44 33 52 72 52 254 0 267 -2 269 -239 273 -91 1 -186 0 -211
-3z m383 -57 c13 -11 18 -30 18 -65 l0 -48 -230 0 -230 0 0 47 c0 82 3 83 228
83 168 0 198 -2 214 -17z m-366 -163 l44 0 0 -146 0 -147 -42 7 c-74 12 -78
21 -78 169 0 114 2 128 16 123 9 -3 36 -6 60 -6z m385 -102 c2 -134 1 -139
-22 -163 -18 -18 -33 -20 -147 -20 l-127 0 -3 143 -3 142 151 0 150 0 1 -102z"/>
<path d="M1182 2780 c-72 -45 -132 -86 -132 -91 0 -28 40 -14 145 50 63 39
120 71 125 71 5 0 62 -32 125 -71 105 -64 145 -78 145 -50 0 9 -226 152 -260
166 -9 3 -70 -28 -148 -75z"/>
<path d="M3380 2791 c-140 -77 -153 -94 -96 -125 l35 -19 3 -85 3 -84 97 -52
98 -51 97 52 98 51 5 86 c5 82 6 87 33 101 l27 14 0 -94 c0 -74 3 -94 15 -99
23 -8 26 9 23 120 l-3 99 -140 77 c-77 43 -147 78 -155 78 -8 0 -71 -31 -140
-69z m241 -27 c57 -31 105 -58 107 -59 5 -5 -195 -115 -208 -115 -13 0 -198
98 -204 108 -2 4 41 33 97 64 56 31 102 57 103 57 1 1 48 -24 105 -55z m-180
-185 l74 -41 75 39 c41 20 79 39 83 41 4 2 7 -22 5 -54 l-3 -59 -77 -43 -78
-44 -77 44 -78 43 -3 58 c-2 31 -1 57 1 57 2 0 37 -18 78 -41z"/>
<path d="M7042 2848 c-9 -9 -12 -69 -12 -210 0 -191 1 -198 20 -198 19 0 20 7
20 190 l0 190 190 0 c183 0 190 1 190 20 0 19 -7 20 -198 20 -141 0 -201 -3
-210 -12z"/>
<path d="M7135 2747 c-3 -7 -4 -94 -3 -192 l3 -180 190 0 190 0 0 190 0 190
-188 3 c-147 2 -189 0 -192 -11z"/>
<path d="M1110 2502 c0 -91 3 -111 16 -116 20 -8 368 -8 388 0 13 5 16 25 16
116 0 99 -2 109 -17 106 -15 -3 -18 -17 -21 -96 l-3 -92 -169 0 -169 0 -3 92
c-3 79 -6 93 -20 96 -16 3 -18 -7 -18 -106z"/>
<path d="M680 1925 c0 -8 7 -15 15 -15 12 0 15 -16 15 -85 0 -69 -3 -85 -15
-85 -8 0 -15 -7 -15 -15 0 -22 127 -21 158 1 26 18 29 60 6 85 -15 17 -15 19
0 34 23 23 20 61 -6 79 -31 22 -158 23 -158 1z"/>
<path d="M1740 1896 c0 -45 0 -45 -25 -32 -32 17 -72 9 -90 -17 -23 -33 -19
-90 8 -115 26 -24 75 -29 96 -9 11 10 14 10 18 0 14 -39 23 1 23 102 0 96 -3
115 -15 115 -11 0 -15 -12 -15 -44z"/>
<path d="M6760 1825 c0 -96 3 -115 15 -115 11 0 15 12 15 45 l0 45 40 0 c46 0
90 34 90 70 0 12 -11 32 -25 45 -20 21 -34 25 -80 25 l-55 0 0 -115z"/>
<path d="M943 1865 c-77 -32 -48 -155 36 -155 25 0 44 7 55 19 24 26 4 36 -29
15 -23 -15 -27 -15 -50 0 -39 26 -30 36 35 36 59 0 60 0 60 28 0 51 -54 79
-107 57z"/>
<path d="M1274 1872 c-12 -2 -29 -11 -38 -21 -15 -16 -15 -19 -2 -24 8 -3 20
1 26 9 15 17 42 18 58 2 20 -20 14 -25 -30 -32 -23 -4 -48 -12 -55 -18 -16
-13 -17 -50 -1 -66 15 -15 70 -16 85 -1 8 8 13 8 17 0 11 -16 46 -13 46 4 0 8
-4 15 -10 15 -5 0 -10 19 -10 43 0 66 -31 98 -86 89z"/>
<path d="M1874 1872 c-12 -2 -29 -11 -38 -21 -15 -16 -15 -19 -2 -24 8 -3 20
1 26 9 15 17 42 18 58 2 20 -20 14 -25 -30 -32 -23 -4 -48 -12 -55 -18 -16
-13 -17 -50 -1 -66 15 -15 70 -16 85 -1 8 8 13 8 17 0 11 -16 46 -13 46 4 0 8
-4 15 -10 15 -5 0 -10 19 -10 43 0 66 -31 98 -86 89z"/>
<path d="M3517 1869 c-57 -16 -75 -83 -36 -133 26 -33 88 -37 119 -6 22 22 27
78 10 110 -13 24 -59 39 -93 29z"/>
<path d="M3924 1872 c-12 -2 -29 -11 -38 -21 -15 -16 -15 -19 -2 -24 8 -3 20
1 26 9 16 18 44 18 60 -1 17 -20 9 -27 -36 -31 -20 -2 -42 -8 -50 -15 -17 -14
-18 -51 -2 -67 15 -15 70 -16 85 -1 8 8 13 8 17 0 11 -16 46 -13 46 4 0 8 -4
15 -10 15 -5 0 -10 19 -10 43 0 66 -31 98 -86 89z"/>
<path d="M7127 1869 c-57 -16 -75 -83 -36 -133 26 -33 88 -37 119 -6 22 22 27
78 10 110 -13 24 -59 39 -93 29z"/>
<path d="M7513 1865 c-77 -32 -48 -155 36 -155 25 0 44 7 55 19 24 26 4 36
-29 15 -23 -15 -27 -15 -50 0 -39 26 -30 36 35 36 59 0 60 0 60 28 0 51 -54
79 -107 57z"/>
<path d="M9073 1865 c-77 -32 -48 -155 36 -155 25 0 44 7 55 19 24 26 4 36
-29 15 -23 -15 -27 -15 -50 0 -39 26 -30 36 35 36 59 0 60 0 60 28 0 51 -54
79 -107 57z"/>
<path d="M9565 1864 c-14 -7 -25 -9 -25 -3 0 5 -7 9 -15 9 -12 0 -15 -19 -15
-110 0 -91 3 -110 15 -110 11 0 15 11 15 42 0 33 3 39 12 30 19 -19 76 -14 98
8 24 24 27 86 5 117 -18 26 -58 34 -90 17z"/>
<path d="M9844 1872 c-12 -2 -29 -11 -38 -21 -15 -16 -15 -19 -2 -24 8 -3 20
1 26 9 16 18 44 18 60 -1 17 -20 9 -27 -36 -31 -20 -2 -42 -8 -50 -15 -17 -14
-18 -51 -2 -67 15 -15 70 -16 85 -1 8 8 13 8 17 0 11 -16 46 -13 46 4 0 8 -4
15 -10 15 -5 0 -10 19 -10 43 0 66 -31 98 -86 89z"/>
<path d="M7280 1806 c0 -45 5 -69 16 -80 17 -18 69 -22 79 -6 12 20 26 9 23
-17 -3 -26 -7 -28 -50 -31 -68 -4 -59 -22 11 -22 44 0 60 4 65 16 3 9 6 58 6
110 0 77 -3 94 -15 94 -11 0 -15 -11 -15 -39 0 -75 -29 -113 -71 -91 -15 9
-19 22 -19 70 0 47 -3 60 -15 60 -12 0 -15 -14 -15 -64z"/>
<path d="M9230 1790 c0 -63 3 -80 15 -80 10 0 15 16 17 61 2 45 8 65 20 72 30
19 48 -8 48 -74 0 -46 3 -59 15 -59 12 0 15 13 15 59 0 66 18 93 48 74 12 -7
18 -27 20 -72 2 -47 6 -61 19 -61 13 0 15 12 11 71 -2 47 -8 73 -18 79 -20 13
-64 12 -77 -1 -8 -8 -13 -8 -17 0 -9 15 -59 14 -74 -1 -9 -9 -12 -9 -12 0 0 7
-7 12 -15 12 -12 0 -15 -16 -15 -80z"/>
</g>
</svg>
