<?xml version="1.0" encoding="UTF-8"?>
<svg id="Layer_1" data-name="Layer 1" xmlns="http://www.w3.org/2000/svg" xmlns:xlink="http://www.w3.org/1999/xlink" viewBox="0 0 484 364">
  <defs>
    <style>
      .cls-1 {
        clip-path: url(#clippath);
      }

      .cls-2 {
        fill: #e6e6e5;
      }

      .cls-3 {
        fill: #fdd0af;
      }

      .cls-4 {
        stroke-linejoin: round;
      }

      .cls-4, .cls-5, .cls-6 {
        fill: none;
        stroke: #bd1a8d;
        stroke-width: 5px;
      }

      .cls-4, .cls-6 {
        stroke-linecap: round;
      }

      .cls-5, .cls-6 {
        stroke-miterlimit: 10;
      }

      .cls-7 {
        clip-path: url(#clippath-1);
      }

      .cls-8 {
        clip-path: url(#clippath-4);
      }

      .cls-9 {
        clip-path: url(#clippath-3);
      }

      .cls-10 {
        clip-path: url(#clippath-2);
      }

      .cls-11 {
        clip-path: url(#clippath-5);
      }
    </style>
    <clipPath id="clippath">
      <path class="cls-3" d="M112.22,165.11h.09c12.71,17.84,25.77,19.35,25.77,19.35l-13.38,8.12-12.75-6.56v-2.45c0-1.93,.02-4.79,.04-7.72l.02-1.96c.04-3.58,.1-7.02,.2-8.78Z"/>
    </clipPath>
    <clipPath id="clippath-1">
      <path class="cls-3" d="M204.48,220.04l78.62,1.03c17.84,.22,25.19,10.7,26.76,14.14l51.1,51.24c7.39,10.2,19.2,16.27,31.79,16.32l1.83-.03c7.32-.23,14.53-1.95,21.18-5.06l1.36-.56c22.27-9.66,24.41-32.22,24.41-41.44l1.92,13.96c.18,1.47,3.83,36.21-27.02,48.47-.27,.13,1.96-2.59-12.71,2.54h-10.97c-13.6-.18-21.23-5.66-30.14-16.9l-54.98-53.51-.1-.23c-.86-1.76-7.11-12.79-24.47-12.79l-78.57-1.07c-18.77-.22-24.88,12.22-25.15,12.71l-53.29,48.34c-9.05,10.88-23.81,19.8-37.41,19.8-6.69,.19-13.35-.85-19.67-3.08-26.17-11.22-28.43-39.6-28.52-48.62v-1.24c0-.83,.03-1.36,.03-1.51l2.72-12.22c-.38,18.49,10.33,35.42,27.2,42.99h.22c6.95,3.4,14.56,5.27,22.3,5.48,12.61,.28,24.6-5.47,32.28-15.47l52.13-49.5c1.07-2.01,8.2-14.05,27.16-13.78Z"/>
    </clipPath>
    <clipPath id="clippath-2">
      <path class="cls-3" d="M306.86,149.01h-.18c7.69,15.27,19.06,18.63,23.7,19.37l.66,.09c.6,.08,1.03,.1,1.25,.11h.15s-11.98,2.95-11.98,2.95l-12.44-4.99c-.78-5.81-1.16-11.66-1.16-17.52Z"/>
    </clipPath>
    <clipPath id="clippath-3">
      <path class="cls-3" d="M339.24,116.23c9.85,19.44,25.77,19.31,25.77,19.31l-12,2.94-12.44-4.73c-.83-5.81-1.28-11.66-1.34-17.52Z"/>
    </clipPath>
    <clipPath id="clippath-4">
      <path class="cls-3" d="M372.15,149.9c9.85,19.44,25.77,19.31,25.77,19.31l-12,2.94-12.62-4.73c-.77-5.81-1.16-11.66-1.16-17.52Z"/>
    </clipPath>
    <clipPath id="clippath-5">
      <path class="cls-3" d="M338.52,181.38c9.31,18.28,23.89,19.29,25.61,19.35h.17s-12,2.95-12,2.95l-12.58-4.77c-.77-5.81-1.18-11.66-1.2-17.52Z"/>
    </clipPath>
  </defs>
  <ellipse class="cls-2" cx="242" cy="345" rx="158" ry="6"/>
  <g>
    <g>
      <g>
        <path class="cls-3" d="M112.22,165.11h.09c12.71,17.84,25.77,19.35,25.77,19.35l-13.38,8.12-12.75-6.56v-2.45c0-1.93,.02-4.79,.04-7.72l.02-1.96c.04-3.58,.1-7.02,.2-8.78Z"/>
        <g class="cls-1">
          <polygon class="cls-3" points="111.95 165.11 138.08 165.11 138.08 192.57 111.95 192.57 111.95 165.11"/>
        </g>
      </g>
      <g>
        <path class="cls-3" d="M204.48,220.04l78.62,1.03c17.84,.22,25.19,10.7,26.76,14.14l51.1,51.24c7.39,10.2,19.2,16.27,31.79,16.32l1.83-.03c7.32-.23,14.53-1.95,21.18-5.06l1.36-.56c22.27-9.66,24.41-32.22,24.41-41.44l1.92,13.96c.18,1.47,3.83,36.21-27.02,48.47-.27,.13,1.96-2.59-12.71,2.54h-10.97c-13.6-.18-21.23-5.66-30.14-16.9l-54.98-53.51-.1-.23c-.86-1.76-7.11-12.79-24.47-12.79l-78.57-1.07c-18.77-.22-24.88,12.22-25.15,12.71l-53.29,48.34c-9.05,10.88-23.81,19.8-37.41,19.8-6.69,.19-13.35-.85-19.67-3.08-26.17-11.22-28.43-39.6-28.52-48.62v-1.24c0-.83,.03-1.36,.03-1.51l2.72-12.22c-.38,18.49,10.33,35.42,27.2,42.99h.22c6.95,3.4,14.56,5.27,22.3,5.48,12.61,.28,24.6-5.47,32.28-15.47l52.13-49.5c1.07-2.01,8.2-14.05,27.16-13.78Z"/>
        <g class="cls-7">
          <polygon class="cls-3" points="40.43 220.04 443.67 220.04 443.67 320.64 40.43 320.64 40.43 220.04"/>
        </g>
      </g>
      <g>
        <path class="cls-3" d="M306.86,149.01h-.18c7.69,15.27,19.06,18.63,23.7,19.37l.66,.09c.6,.08,1.03,.1,1.25,.11h.15s-11.98,2.95-11.98,2.95l-12.44-4.99c-.78-5.81-1.16-11.66-1.16-17.52Z"/>
        <g class="cls-10">
          <polygon class="cls-3" points="306.68 149.01 332.46 149.01 332.46 171.53 306.68 171.53 306.68 149.01"/>
        </g>
      </g>
      <g>
        <path class="cls-3" d="M339.24,116.23c9.85,19.44,25.77,19.31,25.77,19.31l-12,2.94-12.44-4.73c-.83-5.81-1.28-11.66-1.34-17.52Z"/>
        <g class="cls-9">
          <polygon class="cls-3" points="339.24 116.23 365.01 116.23 365.01 138.48 339.24 138.48 339.24 116.23"/>
        </g>
      </g>
      <g>
        <path class="cls-3" d="M372.15,149.9c9.85,19.44,25.77,19.31,25.77,19.31l-12,2.94-12.62-4.73c-.77-5.81-1.16-11.66-1.16-17.52Z"/>
        <g class="cls-8">
          <polygon class="cls-3" points="372.15 149.9 397.92 149.9 397.92 172.15 372.15 172.15 372.15 149.9"/>
        </g>
      </g>
      <g>
        <path class="cls-3" d="M338.52,181.38c9.31,18.28,23.89,19.29,25.61,19.35h.17s-12,2.95-12,2.95l-12.58-4.77c-.77-5.81-1.18-11.66-1.2-17.52Z"/>
        <g class="cls-11">
          <polygon class="cls-3" points="338.52 181.38 364.3 181.38 364.3 203.68 338.52 203.68 338.52 181.38"/>
        </g>
      </g>
    </g>
    <g>
      <path class="cls-6" d="M351.54,203.54c8.1,0,14.67-6.57,14.67-14.67s-6.57-14.67-14.67-14.67-14.67,6.57-14.67,14.67,6.57,14.67,14.67,14.67Z"/>
      <path class="cls-5" d="M167.24,73.6c-12.39-1.5-24.85-2.35-37.32-2.54-19.08-.4-37.49,7.05-50.92,20.6-14.58,14.4-20.47,34.83-22.3,52.4-1.96,15.61-16.23,125.35-16.23,125.35,0,1.43-3.52,34.74,25.15,46.38,7.22,3.29,15.03,5.07,22.97,5.22,12.53,0,21.89-6.38,31.21-16.32,9.32-9.94,49.05-48.61,54.54-54.09,10.35-10.38,24.28-16.42,38.93-16.86h57.57c14.65,.44,28.58,6.47,38.93,16.86,5.53,5.48,45.31,44.15,54.54,54.09,9.23,9.94,18.55,16.14,31.21,16.32,7.89-.18,15.66-1.97,22.83-5.26,28.67-11.64,25.28-44.95,25.11-46.38,0,0-14.18-109.7-15.96-125.35-2.05-17.57-7.89-37.99-22.3-52.4-13.44-13.55-31.84-21-50.92-20.6-12.48,.21-24.94,1.08-37.32,2.59-13.38,1.34-136.27,1.34-149.7,0Z"/>
      <path class="cls-6" d="M58.3,240.69c1.43-10.93,2.94-22.74,4.46-33.98"/>
      <path class="cls-6" d="M54.83,267.22c.49-3.83,1.03-8.16,1.65-12.89"/>
      <path class="cls-6" d="M196.59,149.99h31.13c.25,0,.45,.2,.45,.45v17.79c0,.25-.2,.45-.45,.45h-31.13c-.25,0-.45-.2-.45-.45v-17.79c0-.25,.2-.45,.45-.45Z"/>
      <path class="cls-6" d="M245.59,149.99h31.13c.25,0,.45,.2,.45,.45v17.79c0,.25-.2,.45-.45,.45h-31.13c-.25,0-.45-.2-.45-.45v-17.79c0-.25,.2-.45,.45-.45Z"/>
      <path class="cls-6" d="M351.54,138.48c8.1,0,14.67-6.57,14.67-14.67s-6.57-14.67-14.67-14.67-14.67,6.57-14.67,14.67,6.57,14.67,14.67,14.67Z"/>
      <path class="cls-6" d="M384.05,171.04c8.1,0,14.67-6.57,14.67-14.67s-6.57-14.67-14.67-14.67-14.67,6.57-14.67,14.67,6.57,14.67,14.67,14.67Z"/>
      <path class="cls-6" d="M318.99,171.04c8.1,0,14.67-6.57,14.67-14.67s-6.57-14.67-14.67-14.67-14.67,6.57-14.67,14.67,6.57,14.67,14.67,14.67Z"/>
      <path class="cls-4" d="M151.15,139.46h-10.66v-9.59c-.43-7.63-6.74-13.6-14.38-13.6s-13.96,5.97-14.38,13.6v9.59h-10.21c-7.95,0-14.4,6.45-14.4,14.4s6.45,14.4,14.4,14.4h10.3v10.57c-.3,5.33,2.38,10.39,6.95,13.14,4.57,2.75,10.29,2.75,14.86,0,4.57-2.75,7.25-7.81,6.95-13.14v-10.57h10.66c7.95,0,14.4-6.45,14.4-14.4s-6.45-14.4-14.4-14.4h-.09Z"/>
    </g>
  </g>
</svg>