<?xml version="1.0" standalone="no"?>
<!DOCTYPE svg PUBLIC "-//W3C//DTD SVG 20010904//EN"
 "http://www.w3.org/TR/2001/REC-SVG-20010904/DTD/svg10.dtd">
<svg version="1.0" xmlns="http://www.w3.org/2000/svg"
 width="1080.000000pt" height="2400.000000pt" viewBox="0 0 1080.000000 2400.000000"
 preserveAspectRatio="xMidYMid meet">
<metadata>
Created by potrace 1.16, written by Peter Selinger 2001-2019
</metadata>
<g transform="translate(0.000000,2400.000000) scale(0.100000,-0.100000)"
fill="#000000" stroke="none">
<path d="M0 21535 c0 -1356 2 -2465 5 -2465 5 0 105 37 210 77 22 8 83 30 135
49 52 18 113 40 135 48 182 67 449 164 540 196 61 21 142 50 180 65 39 14 95
35 125 45 103 35 565 200 585 210 11 5 101 37 200 71 99 34 188 68 197 77 15
13 18 39 20 206 l3 191 560 2 c552 1 561 2 630 24 64 21 106 43 94 52 -2 2
-49 39 -104 83 -55 44 -136 107 -180 140 -44 32 -82 62 -85 65 -5 5 -215 170
-561 438 -74 58 -140 111 -146 120 -16 19 -17 83 -1 99 9 9 156 12 602 12 545
0 593 -1 618 -18 26 -17 331 -260 612 -490 77 -63 149 -118 161 -124 16 -7 41
-2 105 22 297 112 566 201 820 271 63 18 120 38 126 46 8 9 11 57 9 144 -1 71
2 132 7 135 5 3 226 5 492 4 500 -1 514 0 656 44 41 13 104 31 140 41 36 10
92 26 125 35 57 17 101 29 245 70 158 45 186 54 204 66 17 12 16 13 -17 19
-19 4 -446 5 -949 3 l-913 -3 0 440 0 440 1405 -4 c1268 -3 1406 -5 1418 -19
17 -22 15 -42 -5 -42 -15 -1 -16 -2 -3 -9 13 -8 15 -47 14 -265 -1 -297 -1
-297 67 -277 45 14 62 20 113 40 16 7 31 10 33 7 3 -3 22 1 42 9 20 8 63 19
96 25 33 7 65 15 70 19 11 8 54 21 164 51 41 11 79 24 85 30 5 5 20 10 33 10
13 0 31 4 41 9 17 9 50 18 147 42 28 7 54 16 59 20 6 5 19 9 30 9 19 0 67 13
111 31 47 18 156 49 174 49 11 0 23 5 26 10 3 6 17 10 30 10 13 0 37 5 52 11
15 6 37 15 48 19 38 16 75 20 75 10 0 -5 -11 -10 -24 -10 -14 0 -28 -4 -31
-10 -3 -5 -19 -10 -36 -10 -16 0 -29 -4 -29 -9 0 -8 -22 -15 -97 -28 -18 -3
-33 -9 -33 -14 0 -5 -9 -9 -20 -9 -11 0 -28 -4 -38 -9 -9 -5 -51 -19 -92 -31
-121 -36 -144 -44 -154 -52 -6 -4 -17 -8 -26 -8 -20 0 -138 -37 -162 -50 -10
-6 -27 -10 -38 -10 -11 0 -29 -4 -40 -10 -11 -5 -28 -14 -39 -19 -10 -5 -36
-13 -57 -16 -22 -4 -48 -10 -59 -14 -46 -18 -92 -33 -115 -39 -14 -3 -40 -14
-58 -24 -40 -22 -56 -23 -48 -2 10 25 -17 11 -29 -15 -8 -18 -16 -21 -37 -17
-21 4 -26 2 -21 -9 4 -11 -3 -15 -26 -15 -17 0 -39 -4 -49 -9 -9 -5 -50 -19
-89 -31 -40 -13 -73 -26 -73 -31 0 -5 -11 -9 -25 -9 -14 0 -34 -4 -45 -10 -11
-5 -29 -14 -40 -20 -11 -5 -27 -10 -35 -10 -8 0 -23 -4 -33 -9 -9 -5 -51 -19
-92 -31 -41 -12 -84 -26 -95 -31 -43 -19 -141 -49 -162 -49 -12 0 -25 -5 -28
-11 -4 -5 -12 -8 -18 -6 -7 2 -34 -5 -62 -15 -27 -11 -90 -32 -140 -48 -49
-15 -117 -38 -150 -50 -33 -12 -100 -34 -150 -50 -49 -15 -157 -52 -240 -80
-82 -29 -179 -61 -214 -71 -36 -10 -85 -26 -110 -35 -81 -29 -155 -56 -176
-65 -11 -5 -47 -17 -80 -28 -33 -10 -249 -80 -480 -155 -231 -75 -442 -143
-470 -151 -90 -27 -489 -156 -540 -175 -27 -10 -106 -36 -175 -58 -69 -22
-177 -58 -240 -80 -150 -52 -668 -220 -835 -271 -71 -21 -184 -57 -250 -80
-284 -98 -1103 -366 -1210 -396 -60 -17 -388 -123 -605 -195 -63 -21 -214 -70
-335 -109 -305 -97 -771 -246 -825 -264 -166 -54 -368 -119 -442 -142 l-88
-27 0 -369 c0 -346 1 -368 18 -363 16 5 16 5 0 -6 -17 -10 -18 -458 -18 -9160
l0 -9150 5400 0 5400 0 0 10900 0 10900 -27 -6 c-16 -4 -44 -14 -63 -22 -19
-8 -96 -36 -170 -62 -118 -41 -202 -71 -475 -169 -33 -12 -123 -44 -200 -71
-77 -26 -178 -62 -225 -80 -124 -46 -232 -84 -438 -156 -100 -35 -186 -66
-191 -68 -8 -5 -162 -61 -396 -143 -38 -13 -72 -27 -75 -30 -3 -2 -7 -217 -10
-476 l-5 -472 -29 -82 c-119 -343 -558 -711 -1050 -882 -126 -44 -291 -85
-311 -77 -7 2 -15 23 -19 46 -10 65 -64 226 -112 334 l-44 99 0 128 0 129 68
33 c151 74 320 210 384 310 l33 51 3 228 c3 190 1 229 -11 234 -8 3 -50 -9
-93 -27 -84 -33 -262 -97 -434 -156 -58 -20 -111 -40 -117 -46 -10 -7 -13 -81
-13 -308 l0 -299 -107 111 c-167 173 -349 304 -542 390 -58 26 -70 34 -55 40
10 4 107 35 214 69 107 34 248 80 313 101 64 22 141 44 170 50 28 6 104 28
167 49 63 21 196 64 295 95 99 32 203 68 230 80 28 13 93 36 145 53 52 17 185
59 295 95 291 95 601 192 672 211 34 9 121 36 195 60 73 24 275 90 448 146
611 198 1116 362 1235 402 66 22 170 55 230 73 l110 32 3 1092 2 1091 -5400 0
-5400 0 0 -2465z m1812 1929 c109 -56 107 -223 -4 -280 -63 -33 -153 -14 -197
42 -106 135 46 317 201 238z m8299 -3 c28 -28 29 -33 29 -121 0 -88 -1 -93
-29 -121 l-29 -29 -262 0 -261 0 -24 25 c-23 22 -25 31 -25 125 0 94 2 103 25
125 l24 25 261 0 262 0 29 -29z m-1393 -111 c3 -151 0 -170 -32 -170 -13 0
-27 7 -30 16 -3 9 -6 69 -6 134 0 96 3 122 16 135 9 9 24 15 33 13 14 -3 16
-22 19 -128z m-6310 -7 l3 -123 -123 0 c-123 0 -124 0 -161 -31 l-37 -30 0
149 c0 82 3 152 7 156 4 3 75 5 157 4 l151 -3 3 -122z m502 93 c0 -33 -25
-194 -36 -228 -3 -10 -13 -18 -22 -18 -20 0 -122 66 -122 79 0 5 20 31 45 59
25 28 42 53 37 56 -4 3 -40 -17 -80 -44 -65 -44 -75 -48 -104 -39 -18 5 -34 9
-36 9 -2 0 -2 8 0 17 2 12 50 38 143 80 77 34 148 62 158 62 13 1 17 -7 17
-33z m-2002 -63 c2 -65 6 -83 17 -83 8 0 15 -9 15 -20 0 -11 -7 -20 -15 -20
-10 0 -15 -10 -15 -30 0 -25 -4 -30 -25 -30 -21 0 -25 5 -25 30 0 30 -1 30
-55 30 -41 0 -55 4 -55 14 0 8 26 56 58 105 44 71 62 91 77 89 18 -3 20 -12
23 -85z m285 76 c35 -16 47 -50 47 -134 0 -63 -4 -78 -23 -100 -17 -21 -32
-27 -62 -27 -30 0 -45 6 -62 27 -19 22 -23 37 -23 100 0 82 12 118 44 133 28
14 50 14 79 1z m216 -4 c38 -19 48 -60 24 -94 -18 -25 -18 -27 -1 -43 21 -21
24 -67 6 -91 -28 -38 -118 -38 -145 0 -19 25 -16 70 5 91 17 16 17 18 -1 43
-24 33 -14 74 22 94 34 18 55 18 90 0z m-739 -125 l0 -130 -25 0 -25 0 0 105
0 105 -26 -10 c-34 -13 -34 -13 -34 9 0 12 13 24 38 34 74 30 72 33 72 -113z
m7944 94 c3 -9 6 -58 6 -109 0 -109 -4 -125 -35 -125 -31 0 -35 16 -35 125 0
86 2 95 22 109 28 20 34 20 42 0z m530 -5 c23 -6 56 -21 72 -34 l29 -23 -27
-7 c-15 -4 -42 -2 -59 4 -53 18 -110 13 -167 -16 -38 -19 -55 -24 -64 -15 -23
23 15 61 90 88 46 16 71 17 126 3z m-4010 -925 c14 -5 16 -53 16 -434 0 -348
-3 -430 -14 -439 -10 -8 -390 -10 -1427 -9 l-1414 3 -2 430 c-1 237 0 436 2
443 4 9 295 12 1414 12 775 0 1416 -3 1425 -6z m-4462 -81 c18 -16 16 -20 -59
-95 l-78 -78 168 0 167 0 0 -30 0 -30 -167 0 -168 0 78 -78 78 -78 -21 -19
c-21 -19 -22 -18 -133 93 l-112 112 110 110 c60 60 112 110 114 110 2 0 13 -8
23 -17z m8713 -457 c27 -27 53 -102 39 -115 -5 -5 -24 -12 -41 -16 -29 -6 -34
-3 -42 18 -13 34 -23 38 -52 23 -17 -9 -23 -18 -21 -36 6 -40 18 -47 74 -43
83 6 117 -18 145 -101 34 -101 23 -118 -98 -156 -83 -25 -114 -14 -139 53 -16
42 -16 49 -3 62 22 23 74 19 80 -6 8 -30 67 -23 71 9 6 39 -13 50 -84 50 -75
0 -94 12 -126 82 -28 60 -35 122 -15 138 17 15 144 60 170 61 10 1 29 -10 42
-23z m-464 -160 c9 -34 -4 -56 -31 -56 -30 0 -29 -22 2 -115 75 -227 76 -237
22 -248 -34 -6 -43 10 -94 168 -48 152 -52 158 -87 142 -22 -10 -28 -8 -45 13
-36 45 -22 62 82 97 116 39 141 39 151 -1z m-507 -136 c25 -9 56 -65 56 -101
0 -38 -78 -55 -87 -19 -5 20 -14 24 -43 20 -32 -4 -31 -22 5 -134 33 -101 40
-116 59 -116 31 0 46 19 39 51 -5 25 -2 29 28 37 46 12 57 6 69 -36 14 -52 12
-78 -5 -96 -18 -18 -135 -56 -172 -56 -25 0 -73 40 -73 61 0 7 -20 75 -46 153
-50 155 -49 172 5 201 17 8 54 22 83 29 29 8 54 15 55 15 1 1 13 -3 27 -9z
m-460 -162 c12 -47 7 -56 -45 -74 -64 -23 -72 -33 -58 -73 12 -34 25 -37 75
-19 43 15 66 -2 62 -45 -3 -26 -9 -32 -43 -41 -43 -12 -51 -28 -36 -68 l10
-26 61 16 c60 16 62 16 76 -3 30 -41 15 -58 -81 -92 -104 -37 -96 -35 -113
-24 -13 8 -127 336 -134 383 -3 20 6 26 87 55 110 39 131 40 139 11z m-507
-150 c18 -29 103 -303 103 -332 0 -41 -20 -72 -60 -95 -51 -29 -78 -27 -90 5
-16 41 -12 54 20 61 33 6 39 30 20 87 -52 159 -76 243 -72 254 9 26 66 40 79
20z m-2307 -14 c6 -6 10 -31 8 -55 l-3 -44 -535 0 -535 0 -3 52 c-2 43 0 52
15 55 10 3 248 4 530 4 362 -1 515 -4 523 -12z m1915 -174 c17 -34 95 -294 95
-318 0 -29 -28 -47 -107 -73 -109 -34 -130 -22 -167 101 -10 30 -30 97 -47
149 -16 52 -27 103 -23 113 8 28 42 46 125 67 82 21 95 17 124 -39z m-549
-116 c11 -3 28 -20 37 -37 26 -49 49 -136 42 -158 -5 -14 0 -28 13 -42 11 -12
30 -50 42 -85 26 -70 21 -84 -32 -97 -29 -7 -34 -1 -68 93 -9 24 -18 32 -37
32 -33 0 -37 -19 -17 -90 19 -69 15 -78 -35 -82 -34 -3 -35 -2 -56 57 -48 130
-115 348 -109 356 3 5 11 9 18 9 7 0 47 11 87 25 81 27 85 27 115 19z m-471
-182 c19 -32 54 -137 55 -163 0 -37 -40 -92 -77 -104 -18 -6 -35 -14 -39 -18
-4 -4 1 -36 11 -73 20 -74 15 -85 -36 -87 l-34 -2 -62 185 c-34 102 -63 195
-63 207 0 19 13 26 93 52 96 32 134 32 152 3z m-822 -285 c11 -35 10 -36 -49
-51 -59 -15 -73 -34 -56 -78 14 -38 5 -48 -44 -48 -30 0 -32 4 -53 65 -13 36
-21 71 -19 77 5 14 165 68 192 65 11 -1 23 -14 29 -30z m-605 -244 l41 -67
-70 -39 c-39 -21 -72 -37 -74 -35 -1 2 -15 40 -30 86 -34 103 -27 116 66 121
22 1 33 -9 67 -66z m869 -83 c43 -21 99 -42 123 -46 25 -4 59 -15 76 -25 31
-19 32 -19 90 7 47 21 75 27 139 28 78 1 84 -1 198 -56 122 -59 252 -139 324
-200 34 -29 40 -38 29 -47 -7 -6 -16 -7 -20 -3 -4 4 -6 2 -4 -3 2 -6 -24 -35
-57 -65 -33 -29 -62 -58 -64 -63 -2 -6 -12 1 -23 14 l-19 24 14 -30 c24 -50
69 -196 63 -202 -3 -3 -8 1 -11 9 -8 20 -63 11 -69 -11 -3 -9 -8 -37 -12 -64
-6 -45 -5 -49 34 -87 l40 -41 -9 -57 c-4 -31 -10 -64 -12 -72 -2 -8 -9 -40
-16 -71 -6 -31 -18 -65 -26 -75 -13 -17 -14 -15 -15 26 l-1 45 -14 -30 c-7
-16 -18 -41 -23 -55 -9 -22 -11 -19 -11 27 -1 29 4 63 10 77 7 14 8 33 4 43
-5 10 -9 34 -9 53 -1 30 -5 35 -31 40 -25 4 -36 16 -66 75 -20 38 -41 71 -47
73 -6 2 -8 10 -5 19 4 10 2 14 -4 10 -5 -3 -22 22 -37 56 -15 34 -36 73 -46
87 -13 16 -7 -3 14 -50 46 -101 97 -248 87 -254 -11 -7 -51 5 -51 16 0 5 -4 6
-10 3 -6 -4 -7 1 -3 11 4 12 3 15 -6 10 -8 -6 -11 -2 -9 10 2 11 -2 18 -9 17
-8 -2 -10 4 -6 14 5 12 3 14 -7 8 -9 -5 -11 -4 -6 4 5 7 -1 20 -13 30 -23 20
-28 36 -8 26 6 -4 1 2 -11 12 -13 11 -25 31 -25 45 -1 14 -5 24 -8 23 -3 -2
-14 15 -24 38 -21 46 -33 35 -16 -15 6 -17 9 -33 7 -36 -3 -2 -12 18 -21 44
l-15 49 6 -50 c22 -187 22 -210 -1 -210 -11 0 -25 11 -33 25 -12 24 -12 24 -8
-11 2 -20 0 -42 -6 -50 -8 -11 -9 -10 -4 4 8 26 -2 20 -18 -10 -12 -25 -12
-33 6 -78 19 -50 88 -158 95 -151 3 2 -9 28 -25 57 -17 30 -33 70 -36 89 -6
32 -5 32 15 -12 25 -55 45 -66 23 -12 -37 89 6 37 60 -73 14 -28 35 -37 42
-18 8 20 30 19 38 -1 8 -21 21 -9 21 19 0 11 6 22 13 25 9 3 13 -3 11 -19 -3
-31 11 -82 25 -91 7 -5 8 -8 0 -8 -5 0 -20 9 -32 20 l-22 21 4 -33 c2 -24 10
-35 27 -40 19 -6 17 -7 -12 -5 -22 2 -42 -4 -52 -14 -15 -14 -16 -19 -3 -43
12 -24 15 -25 19 -9 4 15 5 14 6 -5 1 -21 4 -22 64 -18 75 4 91 10 105 39 10
20 11 19 9 -13 -1 -23 -7 -34 -15 -32 -8 1 -11 -1 -8 -6 9 -15 -42 -52 -61
-46 -13 4 -15 3 -5 -4 10 -7 2 -16 -33 -36 -38 -23 -44 -30 -34 -42 6 -8 17
-14 23 -14 20 0 78 -62 72 -77 -3 -7 0 -22 6 -33 10 -16 8 -23 -12 -45 -13
-14 -29 -25 -37 -25 -31 0 3 -74 82 -175 65 -84 149 -231 142 -248 -3 -6 -65
-79 -137 -162 -72 -82 -163 -189 -203 -237 -58 -70 -76 -86 -94 -83 -15 4 -28
-4 -46 -27 l-25 -32 23 -30 c37 -50 48 -101 42 -193 -6 -101 -41 -181 -100
-228 -36 -28 -45 -30 -122 -31 -69 0 -87 -4 -110 -22 -35 -28 -55 -28 -90 0
-26 20 -31 21 -92 8 -53 -10 -72 -10 -103 0 -35 11 -43 10 -80 -9 -52 -27 -59
-26 -105 4 -34 24 -40 25 -74 13 -20 -7 -54 -13 -76 -14 -22 -1 -63 -5 -91 -9
-46 -7 -54 -5 -75 16 -13 13 -32 22 -41 21 -10 -2 -24 0 -32 5 -10 6 1 15 40
35 l54 26 0 -28 c0 -46 21 -55 84 -37 29 8 65 13 78 10 14 -3 43 4 65 16 l40
20 28 -30 c34 -34 48 -36 106 -9 54 24 78 25 94 4 10 -15 18 -15 66 -4 30 7
61 19 70 27 15 13 19 11 39 -16 27 -39 56 -39 89 0 25 30 27 30 56 15 56 -30
117 -17 172 36 43 42 64 109 65 210 2 97 -15 139 -64 164 -25 13 -28 18 -16
25 8 4 41 37 72 73 54 61 56 67 47 98 -5 18 -10 26 -10 19 -1 -12 -66 79 -164
231 -19 29 -41 39 -31 14 3 -8 -13 -32 -39 -58 -95 -93 -163 -126 -377 -181
-72 -19 -118 -25 -190 -24 l-95 2 1 48 c0 26 -1 47 -3 47 -13 0 -65 -44 -84
-71 -20 -29 -20 -31 -3 -50 12 -13 18 -38 19 -74 1 -30 8 -61 14 -69 10 -12 3
-19 -41 -39 l-53 -24 -22 20 c-34 31 -110 34 -162 7 l-43 -22 -32 31 c-38 37
-59 39 -80 9 -15 -21 -16 -21 -29 -4 -13 17 -19 18 -63 7 -79 -20 -94 -34 -94
-89 0 -63 -12 -81 -34 -51 -22 32 -20 91 4 121 25 32 91 59 155 64 28 2 65 7
83 10 27 5 38 2 61 -20 27 -26 28 -26 66 -10 49 20 136 15 164 -10 21 -19 60
-14 62 7 5 41 -5 114 -18 134 -17 26 -17 27 56 105 30 33 34 43 36 100 2 76
-6 100 -50 149 -19 21 -40 50 -48 66 -22 42 -38 165 -31 229 l7 57 -27 -7
c-33 -8 -86 26 -86 55 0 31 47 86 79 92 23 5 28 10 24 29 -3 15 3 30 16 42 25
23 29 84 6 92 -21 8 -19 21 5 29 29 9 25 35 -5 35 -14 0 -25 -4 -25 -10 0 -5
8 -10 18 -10 13 0 14 -2 3 -9 -7 -5 -22 -6 -33 -3 -11 3 -23 0 -27 -7 -6 -9
-16 -8 -43 3 -45 19 -56 34 -52 70 4 37 16 49 49 49 23 0 26 3 23 30 -3 32
-28 51 -28 21 0 -16 -1 -16 -14 2 -11 14 -11 21 -3 26 7 4 -4 8 -23 8 -26 0
-31 3 -20 10 8 5 10 10 4 10 -10 0 -34 70 -34 100 0 6 11 15 24 20 24 9 26 28
12 128 -4 30 7 17 24 -28 26 -68 110 -195 110 -165 0 4 -16 35 -35 69 -39 69
-42 88 -21 106 12 9 19 4 37 -32 12 -24 30 -55 40 -69 10 -14 16 -29 12 -32
-13 -13 28 -19 43 -6 14 11 19 9 35 -11 l19 -25 0 32 c0 17 3 39 6 48 5 13 1
16 -21 13 -26 -3 -29 0 -29 32 -1 30 2 35 22 34 19 -1 22 3 18 22 -4 13 -1 24
6 26 9 3 8 13 -2 39 -8 19 -14 39 -12 46 1 6 -7 14 -18 18 -11 3 -23 17 -26
31 -7 29 -14 30 -37 4 -13 -16 -15 -25 -7 -40 13 -24 13 -40 -1 -18 -10 19
-39 14 -39 -7 0 -22 -24 -34 -38 -19 -7 8 -10 14 -6 14 3 0 1 7 -6 15 -10 13
-25 57 -34 105 -2 8 -6 22 -8 30 -22 61 -29 100 -23 111 6 10 5 11 -3 4 -14
-13 -34 -148 -26 -169 4 -10 -3 -23 -15 -34 -15 -12 -23 -33 -28 -69 -3 -29
-9 -53 -13 -53 -9 0 -19 59 -21 125 -2 42 -4 36 -14 -40 l-11 -90 -10 50 c-5
28 -9 86 -9 130 1 47 -2 70 -6 55 -4 -14 -7 -56 -8 -93 -1 -38 -5 -66 -9 -63
-4 2 -6 -11 -4 -30 3 -25 0 -34 -11 -34 -24 0 -38 152 -23 257 5 32 4 31 -9
-12 -8 -27 -15 -63 -15 -78 0 -19 -4 -26 -12 -21 -8 5 -9 2 -5 -9 4 -10 2 -17
-4 -17 -6 0 -9 -6 -6 -14 3 -8 2 -16 -3 -18 -10 -3 -23 -104 -23 -188 l0 -55
-14 32 c-7 18 -16 64 -19 103 -4 38 -11 70 -16 70 -4 0 -6 -10 -4 -22 3 -13 7
-63 10 -113 4 -86 4 -88 -9 -50 -7 22 -14 52 -14 68 -1 15 -5 27 -10 27 -13 0
-2 -74 24 -157 13 -40 21 -73 20 -73 -2 0 -18 25 -35 55 -18 32 -38 55 -48 55
-13 0 -14 2 -4 9 11 7 9 24 -12 90 -14 45 -26 98 -26 117 0 21 -4 33 -10 29
-5 -3 -10 -13 -10 -22 0 -16 -100 -176 -107 -170 -2 2 3 22 11 45 8 23 20 76
26 119 13 100 43 225 69 293 22 58 23 75 1 35 -7 -14 -18 -25 -23 -25 -11 0 1
17 58 80 71 80 186 178 284 244 107 72 312 176 346 176 12 0 41 -7 65 -15 50
-18 115 -7 160 26 21 16 37 20 62 16 25 -5 48 1 93 23 48 24 73 30 126 30 58
0 77 -5 146 -40z m-1283 -72 c58 -169 59 -172 26 -203 -16 -15 -33 -24 -39
-21 -14 9 -103 285 -95 297 6 11 41 27 60 28 7 1 28 -45 48 -101z m-420 -211
l50 -159 36 7 c71 14 83 12 91 -17 9 -34 1 -40 -80 -67 -110 -36 -99 -47 -169
172 -34 105 -62 196 -62 200 0 11 41 27 64 24 15 -2 29 -33 70 -160z m-380
-26 c21 -57 17 -65 -31 -76 -29 -6 -33 -4 -39 19 -7 29 -21 36 -52 25 -31 -12
-36 -32 -19 -66 15 -27 18 -28 87 -28 67 0 73 -2 95 -28 32 -41 55 -130 41
-159 -11 -22 -98 -62 -161 -74 -35 -6 -65 20 -83 72 -13 39 -5 52 37 60 27 6
33 3 38 -14 6 -26 27 -34 58 -22 27 10 31 26 14 64 -11 23 -16 25 -81 23 -65
-2 -71 0 -93 25 -31 36 -60 127 -51 162 7 30 46 51 131 71 69 16 86 8 109 -54z
m-491 -228 c72 -221 78 -245 74 -257 -3 -7 -24 -18 -48 -25 -42 -13 -44 -12
-66 13 -12 14 -42 59 -65 99 -54 91 -61 69 -19 -58 l29 -90 -26 -12 c-15 -7
-32 -12 -38 -13 -6 0 -30 60 -54 133 -23 72 -51 158 -62 191 -10 32 -17 64
-15 70 3 7 24 18 48 25 42 13 44 12 66 -15 13 -16 38 -54 55 -84 18 -30 38
-61 46 -69 13 -13 13 -10 7 20 -7 38 -23 92 -36 127 -19 50 -2 79 47 81 7 1
32 -61 57 -136z m3702 19 c-18 -145 -80 -293 -159 -380 -43 -47 -51 -52 -57
-36 -14 36 -10 64 10 64 23 0 42 22 58 69 21 59 17 69 -36 95 -35 18 -52 34
-60 57 -15 44 -14 49 10 49 16 0 19 4 14 20 -8 24 11 27 42 5 27 -19 35 -12
95 85 l43 69 23 -22 c21 -20 23 -28 17 -75z m-4305 -150 c19 -37 62 -116 96
-177 34 -60 59 -116 57 -122 -3 -7 -18 -13 -34 -13 -22 0 -32 7 -44 30 -12 22
-23 30 -43 30 -44 0 -55 -13 -50 -59 3 -36 1 -42 -24 -52 -15 -6 -31 -8 -36
-5 -5 3 -13 36 -16 73 -4 38 -14 120 -23 184 -20 141 -15 166 30 172 17 2 37
5 42 5 6 1 26 -28 45 -66z m1600 14 c0 -2 -19 -37 -42 -78 -57 -99 -120 -257
-153 -380 -15 -57 -29 -109 -31 -115 -3 -10 -140 -13 -646 -13 l-642 0 -170
-50 c-94 -28 -214 -64 -266 -80 -52 -15 -129 -38 -170 -50 -41 -12 -102 -30
-135 -40 -33 -10 -78 -23 -100 -29 -22 -6 -69 -20 -105 -30 -36 -11 -182 -54
-325 -96 -143 -42 -352 -104 -465 -137 -183 -54 -263 -77 -380 -110 -19 -5
-46 -12 -60 -14 -14 -3 -34 -9 -45 -14 -44 -18 -103 -32 -115 -28 -15 5 32 23
180 68 58 18 191 61 295 95 105 35 246 81 315 103 69 22 242 78 385 125 143
47 442 145 665 217 223 72 437 143 475 157 115 42 360 124 720 241 187 61 444
144 570 186 231 75 245 79 245 72z m-2072 -109 c6 -6 17 -31 25 -54 14 -40 13
-41 -10 -52 -31 -14 -43 -14 -43 2 0 7 -6 21 -13 31 -12 17 -17 17 -50 6 -42
-16 -49 -33 -30 -78 17 -42 33 -47 88 -32 40 11 46 10 75 -10 35 -25 59 -75
62 -134 3 -38 0 -42 -32 -58 -54 -26 -123 -42 -153 -34 -20 5 -29 16 -38 46
-14 46 -14 46 23 55 24 6 29 3 38 -19 11 -29 15 -30 58 -15 39 13 43 26 24 73
-15 37 -15 38 -66 35 -28 -1 -62 -1 -76 0 -31 2 -62 47 -80 118 -13 48 -12 54
5 73 10 11 38 26 62 32 24 6 46 14 49 19 8 14 70 11 82 -4z m4496 -1790 c21
-21 31 -23 79 -19 70 6 137 -24 172 -76 30 -44 31 -63 6 -86 -18 -16 -19 -15
-25 18 -8 43 -62 92 -111 102 -32 6 -83 1 -127 -12 -14 -4 -18 1 -18 20 0 35
-28 40 -91 17 -49 -19 -54 -19 -71 -5 -9 9 -25 14 -35 11 -36 -11 -135 -55
-144 -64 -19 -19 -60 -182 -66 -264 -7 -97 4 -129 42 -129 13 0 27 5 30 10 8
13 52 13 60 0 4 -6 28 -10 53 -8 36 2 47 -1 47 -11 0 -22 -62 -35 -96 -20 -23
9 -36 9 -59 -1 -40 -17 -73 -2 -96 42 -23 45 -14 185 20 297 32 106 46 126 93
141 21 7 43 16 48 20 6 4 29 14 52 20 32 10 48 10 70 1 23 -9 37 -9 68 3 56
21 73 19 99 -7z m-1254 -61 c0 -2 -7 -23 -15 -47 -19 -52 -45 -208 -45 -267 0
-37 -4 -45 -32 -62 -18 -11 -38 -20 -43 -20 -6 0 -17 33 -24 73 -7 39 -18 83
-24 97 -10 24 -10 24 -18 -15 -4 -22 -8 -66 -8 -97 -1 -61 -2 -62 -43 -72
l-28 -6 0 83 c0 46 3 126 7 177 l6 93 44 19 c25 11 47 18 49 15 3 -3 12 -50
21 -106 8 -55 19 -101 23 -101 8 0 14 41 26 162 7 66 7 67 38 71 52 6 66 7 66
3z m1184 -78 c-3 -46 -7 -132 -7 -192 l-2 -109 -39 -13 c-21 -8 -43 -11 -48
-8 -6 4 -8 51 -4 123 7 132 -4 126 -33 -19 -17 -79 -20 -85 -45 -88 l-26 -3 0
105 c0 58 -4 106 -9 106 -10 0 -31 -100 -31 -151 0 -31 -4 -38 -24 -43 -13 -3
-31 -9 -39 -12 -22 -8 -29 39 -18 108 15 91 52 216 64 221 7 3 35 14 63 25
l51 21 -3 -92 -4 -92 27 77 c26 77 27 78 77 97 28 11 52 20 54 20 1 1 -1 -36
-4 -81z m-1774 -59 c-68 -79 -68 -78 4 -169 19 -24 33 -46 31 -48 -6 -6 -132
85 -183 132 l-43 39 3 70 3 70 43 15 c24 8 45 12 46 11 2 -2 0 -30 -3 -61 -4
-32 -3 -58 1 -58 4 0 29 30 55 66 l48 66 28 -32 27 -31 -60 -70z m1001 2 c-70
-81 -70 -75 2 -169 l40 -53 -28 -29 c-16 -17 -31 -30 -34 -30 -4 0 -26 29 -50
65 -25 36 -48 62 -52 58 -4 -5 -9 -28 -11 -52 -3 -41 -6 -45 -37 -53 -18 -5
-35 -7 -38 -4 -3 3 0 56 6 119 7 62 12 142 13 176 1 67 3 69 72 87 22 5 22 4
18 -57 -5 -74 1 -73 59 13 l41 60 30 -30 31 -30 -62 -71z m-756 103 c28 -11
45 -60 45 -131 0 -93 -15 -141 -60 -185 -32 -33 -44 -38 -82 -38 -68 0 -108
51 -108 138 0 91 39 179 93 209 24 13 85 17 112 7z m525 -18 c0 -21 -6 -25
-46 -31 -36 -5 -47 -12 -55 -31 -18 -49 -13 -55 31 -39 l40 14 0 -32 c0 -30
-3 -34 -45 -45 -45 -12 -45 -12 -45 -56 l0 -45 45 16 c61 20 75 13 75 -37 0
-33 -3 -40 -20 -40 -11 0 -48 -10 -82 -21 l-62 -22 -23 27 c-15 18 -21 35 -18
54 3 15 12 83 20 151 8 68 16 125 18 127 7 7 114 33 140 33 22 1 27 -3 27 -23z
m480 14 c60 -32 51 -236 -14 -307 -25 -28 -41 -36 -79 -40 -40 -5 -52 -2 -72
17 -14 13 -32 42 -41 65 -14 37 -14 51 -4 101 16 79 44 131 83 154 34 21 97
26 127 10z m753 -20 c29 -23 50 -81 39 -109 -6 -16 -97 -101 -107 -101 -2 0 2
19 10 41 20 57 20 125 -1 133 -46 18 -51 11 -58 -90 -4 -53 -11 -106 -16 -118
-9 -24 -58 -61 -67 -52 -3 3 -2 70 2 149 l7 145 31 10 c57 18 132 14 160 -8z
m-1083 -1012 l0 -142 63 68 c61 66 63 68 106 64 l44 -3 -62 -68 c-33 -37 -61
-70 -61 -74 0 -3 31 -50 70 -104 l69 -99 -47 0 -47 0 -50 74 c-46 69 -51 73
-67 59 -13 -12 -18 -31 -18 -75 l0 -58 -40 0 -40 0 0 250 0 250 40 0 40 0 0
-142z m-1488 6 l3 -107 88 107 88 106 51 0 50 0 -44 -52 c-24 -29 -63 -76 -87
-105 l-43 -52 82 -118 c46 -65 87 -124 93 -130 7 -10 -2 -13 -41 -13 l-51 0
-68 99 -68 100 -27 -27 c-26 -23 -28 -32 -28 -99 l0 -73 -40 0 -40 0 0 235 0
235 40 0 39 0 3 -106z m2360 96 c85 -24 119 -131 60 -190 l-29 -28 22 -12 c49
-26 62 -126 23 -175 -34 -44 -75 -55 -198 -55 l-110 0 0 235 0 235 98 0 c53 0
114 -5 134 -10z m646 -67 c3 -40 5 -43 33 -43 26 0 29 -3 29 -30 0 -27 -3 -30
-30 -30 l-31 0 3 -112 3 -113 28 -3 c22 -3 27 -8 27 -32 0 -33 -24 -45 -70
-35 -58 13 -70 43 -70 176 l0 119 -30 0 c-27 0 -30 3 -30 30 0 27 3 30 30 30
29 0 30 2 30 46 l0 45 38 -3 c36 -3 37 -4 40 -45z m-2454 -61 c71 -42 97 -165
54 -252 -59 -117 -223 -115 -285 4 -21 40 -22 141 -1 181 47 88 146 117 232
67z m362 13 c53 -22 64 -60 64 -215 l0 -130 -40 0 -40 0 0 127 c0 104 -3 130
-17 145 -20 22 -61 23 -91 2 -21 -14 -22 -22 -22 -145 l0 -129 -40 0 -40 0 0
175 0 175 34 0 c22 0 36 -6 40 -16 5 -13 9 -14 20 -4 15 11 60 28 84 29 7 1
28 -6 48 -14z m374 -13 c36 -26 60 -80 60 -134 l0 -48 -110 0 c-104 0 -110 -1
-110 -20 0 -12 11 -32 25 -45 31 -32 91 -34 127 -5 l25 19 22 -23 22 -24 -26
-20 c-87 -69 -212 -44 -261 50 -19 36 -21 121 -5 170 14 42 57 86 97 98 39 12
103 3 134 -18z m694 0 c71 -42 97 -165 54 -252 -59 -117 -223 -115 -285 4 -21
40 -22 141 -1 181 47 88 146 117 232 67z m790 0 c71 -42 97 -165 54 -252 -59
-117 -223 -115 -285 4 -21 40 -22 141 -1 181 47 88 146 117 232 67z m-1184
-784 l0 -113 51 58 c37 42 57 57 77 57 25 0 25 -1 -21 -48 -26 -26 -47 -52
-47 -56 0 -5 25 -42 55 -83 53 -69 54 -73 31 -73 -19 0 -35 14 -67 60 -23 33
-45 60 -48 60 -19 0 -31 -29 -31 -72 0 -41 -3 -48 -20 -48 -19 0 -20 7 -20
185 0 178 1 185 20 185 19 0 20 -7 20 -112z m-1130 6 l0 -86 48 54 c27 29 62
68 78 86 20 24 37 33 52 30 20 -3 15 -10 -44 -76 -43 -50 -62 -78 -56 -85 5
-7 40 -51 76 -99 64 -83 66 -88 42 -88 -20 0 -39 17 -89 85 l-64 84 -22 -22
c-17 -19 -21 -36 -21 -85 0 -59 -1 -62 -25 -62 l-25 0 0 175 0 175 25 0 c25 0
25 -1 25 -86z m1888 -56 c31 -76 59 -138 62 -138 3 0 30 63 60 140 52 133 56
140 83 140 l27 0 0 -175 c0 -170 -1 -175 -21 -175 -20 0 -20 4 -17 140 2 77 1
140 -2 140 -3 0 -30 -62 -60 -138 -34 -84 -62 -138 -71 -140 -11 -2 -30 33
-69 130 -29 73 -57 137 -62 143 -4 5 -8 -55 -8 -133 0 -135 -1 -142 -20 -142
-19 0 -20 7 -20 176 l0 175 31 -3 c30 -3 33 -8 87 -140z m498 126 c52 -25 77
-74 77 -153 0 -129 -58 -181 -200 -181 l-53 0 0 175 0 175 71 0 c44 0 84 -6
105 -16z m-1968 -91 c70 -44 66 -190 -7 -227 -51 -27 -98 -21 -137 18 -31 31
-34 39 -34 93 0 40 6 68 20 90 30 51 101 62 158 26z m271 16 c43 -15 51 -40
51 -160 0 -92 -1 -99 -20 -99 -19 0 -20 7 -20 96 0 112 -8 134 -52 134 -57 0
-68 -21 -68 -132 0 -91 -1 -98 -20 -98 -19 0 -20 7 -20 130 0 104 3 130 14
130 8 0 17 -7 20 -16 6 -15 8 -15 24 -1 9 8 26 17 37 20 11 2 20 5 21 6 1 0
16 -4 33 -10z m304 -30 c20 -22 27 -39 27 -69 l0 -40 -85 0 c-79 0 -85 -1 -85
-20 0 -30 44 -70 77 -70 16 0 39 7 52 16 35 25 49 2 15 -25 -18 -14 -41 -21
-71 -21 -38 0 -50 5 -79 34 -31 31 -34 40 -34 90 0 83 23 118 90 139 28 9 65
-5 93 -34z m515 14 c70 -44 66 -190 -7 -227 -51 -27 -98 -21 -137 18 -31 31
-34 39 -34 93 0 40 6 68 20 90 30 51 101 62 158 26z m-1118 -943 c0 -57 1 -60
19 -50 35 18 88 12 105 -12 23 -32 23 -208 1 -208 -12 0 -15 16 -15 85 0 72
-3 88 -20 105 -24 24 -38 25 -68 4 -20 -14 -22 -23 -22 -105 0 -82 -1 -89 -20
-89 -19 0 -20 7 -20 165 0 158 1 165 20 165 18 0 20 -7 20 -60z m1590 0 c0
-57 1 -60 19 -50 30 16 76 12 101 -8 24 -20 38 -98 26 -147 -14 -57 -75 -82
-129 -54 -16 9 -22 9 -25 0 -2 -6 -10 -11 -18 -11 -11 0 -14 29 -14 165 0 158
1 165 20 165 18 0 20 -7 20 -60z m750 -41 l0 -101 46 51 c27 30 54 51 67 51
20 0 20 -1 -4 -27 -66 -74 -65 -62 -9 -136 43 -57 48 -67 31 -67 -13 0 -36 21
-62 55 -49 65 -69 61 -69 -11 0 -37 -3 -44 -20 -44 -19 0 -20 7 -20 165 0 158
1 165 20 165 19 0 20 -7 20 -101z m-3552 57 c43 -38 36 -120 -11 -144 -12 -7
-49 -13 -82 -14 l-60 -3 -3 -62 c-2 -47 -7 -63 -17 -63 -13 0 -15 26 -15 156
l0 156 84 -3 c64 -3 89 -8 104 -23z m2430 1 c39 -35 34 -105 -10 -138 l-21
-16 38 -67 c34 -62 35 -66 16 -66 -16 0 -29 16 -53 65 l-33 66 -40 -3 -40 -3
-3 -62 c-2 -47 -7 -63 -17 -63 -13 0 -15 26 -15 156 l0 156 79 -3 c58 -3 84
-9 99 -22z m-2193 -82 c17 -16 25 -35 25 -60 l0 -35 -75 0 c-65 0 -75 -2 -75
-18 0 -36 29 -62 69 -62 20 0 42 5 48 11 6 6 17 8 23 4 21 -13 -31 -45 -72
-45 -97 0 -143 133 -71 205 35 34 94 35 128 0z m267 -72 l3 -98 33 -3 c58 -6
72 17 72 115 0 67 3 83 15 83 12 0 15 -19 15 -115 0 -93 -3 -115 -14 -115 -8
0 -16 5 -18 11 -3 9 -9 9 -25 0 -34 -18 -78 -13 -99 10 -15 17 -20 40 -22 115
-4 89 -3 94 17 94 19 0 20 -7 23 -97z m348 77 c11 -11 20 -24 20 -30 0 -5 -9
-10 -20 -10 -11 0 -20 4 -20 10 0 20 -41 33 -67 21 -41 -19 -27 -53 28 -71 59
-19 79 -36 79 -66 0 -38 -34 -64 -82 -64 -47 1 -68 12 -87 48 -10 19 -9 22 6
22 10 0 24 -9 31 -20 15 -25 74 -27 93 -4 19 24 2 43 -60 64 -29 10 -57 24
-62 31 -28 44 11 89 76 89 32 0 51 -6 65 -20z m228 3 c17 -15 21 -33 24 -115
4 -97 -2 -114 -29 -87 -8 8 -17 8 -31 0 -53 -28 -112 0 -112 53 0 44 26 65 89
73 55 6 67 26 35 57 -21 22 -50 20 -75 -5 -11 -11 -28 -19 -37 -17 -14 3 -13
8 10 31 33 32 94 37 126 10z m480 0 c17 -15 21 -33 24 -115 4 -97 -2 -114 -29
-87 -8 8 -17 8 -31 0 -53 -28 -112 0 -112 53 0 44 26 65 89 73 55 6 67 26 35
57 -21 22 -50 20 -75 -5 -11 -11 -28 -19 -37 -17 -14 3 -13 8 10 31 33 32 94
37 126 10z m240 0 c17 -15 21 -33 24 -115 4 -97 -2 -114 -29 -87 -8 8 -17 8
-31 0 -53 -28 -112 0 -112 53 0 44 26 65 89 73 55 6 67 26 35 57 -21 22 -50
20 -75 -5 -11 -11 -28 -19 -37 -17 -14 3 -13 8 10 31 33 32 94 37 126 10z
m132 7 c0 -7 6 -7 19 0 35 18 88 12 105 -12 23 -32 23 -208 1 -208 -12 0 -15
16 -15 85 0 72 -3 88 -20 105 -24 24 -38 25 -68 4 -20 -14 -22 -23 -22 -105 0
-82 -1 -89 -20 -89 -19 0 -20 7 -20 115 0 108 1 115 20 115 11 0 20 -5 20 -10z
m745 -16 c68 -74 24 -204 -69 -204 -93 0 -138 135 -69 205 37 36 104 35 138
-1z m500 0 c68 -74 24 -204 -69 -204 -93 0 -138 135 -69 205 37 36 104 35 138
-1z m703 9 c17 -15 21 -33 24 -115 4 -97 -2 -114 -29 -87 -8 8 -17 8 -31 0
-53 -28 -112 0 -112 53 0 44 26 65 89 73 55 6 67 26 35 57 -21 22 -50 20 -75
-5 -11 -11 -28 -19 -37 -17 -14 3 -13 8 10 31 33 32 94 37 126 10z m-2658
-928 c0 -52 4 -95 9 -95 5 0 26 20 47 45 25 31 44 45 61 45 24 0 24 0 -11 -42
-20 -23 -36 -47 -36 -54 0 -7 18 -39 41 -71 34 -49 38 -59 23 -62 -17 -3 -32
10 -81 75 -22 28 -23 29 -38 10 -8 -11 -15 -35 -15 -53 0 -26 -4 -33 -20 -33
-19 0 -20 7 -20 165 0 158 1 165 20 165 19 0 20 -7 20 -95z m-401 64 c52 -18
70 -83 31 -116 -19 -16 -19 -17 5 -39 30 -27 33 -72 8 -103 -20 -25 -76 -40
-145 -41 l-48 0 0 155 0 155 59 0 c32 0 72 -5 90 -11z m1101 -9 c44 -44 18
-114 -78 -212 l-46 -48 82 0 c66 0 82 -3 82 -15 0 -12 -18 -15 -100 -15 -81 0
-100 3 -100 15 0 8 32 49 70 92 39 43 73 88 77 101 8 33 -12 70 -42 78 -32 8
-75 -19 -75 -46 0 -14 -7 -20 -21 -20 -16 0 -19 4 -14 23 4 12 17 32 28 45 28
30 108 31 137 2z m250 -85 c0 -98 1 -105 20 -105 11 0 20 -4 20 -9 0 -5 -9
-11 -20 -14 -15 -4 -20 -14 -20 -41 0 -51 -28 -49 -32 2 l-3 37 -73 5 -73 5
72 113 c50 79 77 112 90 112 17 0 19 -8 19 -105z m-1190 -59 c0 -97 14 -122
59 -111 37 9 41 20 41 113 0 75 2 82 20 82 19 0 20 -7 20 -115 0 -88 -3 -115
-13 -115 -7 0 -18 5 -24 11 -8 8 -17 8 -31 0 -33 -17 -61 -13 -87 14 -23 22
-25 32 -25 115 0 83 1 90 20 90 18 0 20 -7 20 -84z m580 66 c19 -16 23 -30 27
-115 4 -92 4 -97 -15 -97 -11 0 -22 5 -24 11 -3 9 -14 8 -40 -1 -45 -17 -82
-3 -100 35 -18 41 15 78 80 89 51 9 58 18 46 50 -8 20 -57 21 -74 1 -14 -16
-50 -21 -50 -6 0 5 12 19 26 30 33 26 94 28 124 3z m1068 1 c17 -15 21 -33 24
-115 4 -97 -2 -114 -29 -87 -8 8 -17 8 -31 0 -53 -28 -112 0 -112 53 0 44 26
65 89 73 55 6 67 26 35 57 -21 22 -50 20 -75 -5 -11 -11 -28 -19 -37 -17 -14
3 -13 8 10 31 33 32 94 37 126 10z m127 7 c4 -7 12 -7 25 0 28 15 86 12 100
-5 11 -13 15 -13 33 0 28 20 86 19 109 -2 15 -13 18 -32 18 -115 0 -80 -3 -98
-15 -98 -12 0 -15 17 -15 89 0 82 -2 91 -22 105 -30 21 -44 20 -68 -4 -17 -17
-20 -33 -20 -105 0 -69 -3 -85 -15 -85 -12 0 -15 16 -15 85 0 72 -3 88 -20
105 -24 24 -38 25 -68 4 -20 -14 -22 -23 -22 -105 0 -82 -1 -89 -20 -89 -19 0
-20 7 -20 115 0 93 3 115 14 115 8 0 18 -5 21 -10z m-661 -1270 c6 -6 7 -13 0
-20 -10 -10 -477 -15 -494 -5 -16 10 -12 25 9 33 31 11 473 4 485 -8z m-2543
-9 c18 -14 23 -30 26 -77 4 -57 3 -60 -36 -103 l-41 -44 22 -36 c12 -20 30
-49 41 -64 23 -34 144 -127 165 -127 8 0 32 16 54 36 38 34 42 35 100 31 75
-5 98 -23 98 -77 0 -63 -25 -81 -102 -74 -35 4 -82 15 -105 25 -23 11 -45 19
-48 19 -4 0 -40 24 -81 54 -124 89 -224 259 -224 382 0 43 4 53 23 62 34 17
82 14 108 -7z m4665 -98 l105 -107 -108 -108 c-59 -59 -109 -105 -112 -102 -3
3 -8 29 -11 57 l-5 52 -60 3 c-63 3 -212 -37 -240 -64 -7 -8 -18 -14 -23 -14
-5 0 -17 -9 -27 -20 -46 -51 -43 4 5 81 15 25 50 67 76 92 53 50 177 117 218
117 47 0 56 9 56 59 0 43 5 61 17 61 3 0 52 -48 109 -107z m-2100 -14 c3 -6 8
-28 11 -48 2 -20 8 -59 12 -88 6 -41 5 -55 -8 -68 -12 -11 -17 -43 -21 -112
-3 -64 -9 -98 -17 -101 -10 -3 -13 20 -13 91 0 119 -6 127 -93 127 -34 0 -67
-4 -74 -8 -8 -5 -13 -43 -15 -107 l-3 -100 -155 0 -155 0 -5 95 c-3 63 -10
102 -21 117 -14 20 -14 32 -2 105 8 46 16 89 18 96 6 16 530 18 541 1z m-2882
-1052 c21 -14 26 -25 26 -57 0 -48 -27 -70 -98 -78 -54 -6 -62 -13 -62 -64 0
-21 -4 -38 -10 -38 -6 0 -10 50 -10 131 l0 131 64 -4 c37 -2 74 -11 90 -21z
m2006 -49 c0 -32 4 -48 13 -48 6 0 34 27 60 60 43 54 67 73 67 52 0 -4 -18
-29 -40 -55 -35 -43 -38 -51 -28 -73 6 -13 15 -24 20 -24 4 0 8 -5 8 -11 0 -6
11 -25 25 -43 28 -37 31 -46 13 -46 -7 0 -28 23 -46 51 -18 27 -40 53 -48 56
-26 10 -47 -22 -46 -67 1 -29 -2 -40 -13 -40 -13 0 -15 21 -15 123 0 68 3 127
7 130 12 13 23 -17 23 -65z m2234 49 c29 -20 35 -57 11 -77 -19 -16 -19 -34 1
-50 10 -9 14 -26 12 -49 -4 -45 -32 -61 -110 -61 l-58 0 0 123 c0 68 3 127 8
131 12 13 109 1 136 -17z m-3406 -59 c10 -10 17 -10 32 0 23 14 24 9 22 -138
-1 -74 -4 -87 -23 -102 -22 -19 -84 -24 -93 -9 -3 5 10 9 30 8 39 -1 64 21 64
55 0 15 -6 17 -43 12 -39 -6 -46 -3 -65 21 -38 48 -26 136 21 155 31 12 41 12
55 -2z m2175 -19 c26 -32 23 -110 -5 -137 -36 -33 -73 -35 -108 -5 -25 21 -30
32 -30 70 0 52 13 81 43 93 32 14 79 3 100 -21z m210 19 l27 1 0 -94 c0 -52
-5 -105 -11 -118 -17 -38 -71 -57 -113 -41 -25 10 -19 26 7 18 49 -16 87 5 87
48 0 15 -6 17 -44 12 -37 -5 -46 -3 -65 17 -21 23 -25 41 -21 89 4 53 43 86
85 72 11 -3 32 -5 48 -4z m1467 -1 c19 5 20 1 20 -91 0 -130 -19 -166 -85
-166 -30 0 -55 10 -55 22 0 5 5 6 11 2 39 -23 99 6 99 48 0 15 -6 17 -44 12
-57 -8 -86 19 -86 84 0 74 34 108 92 91 15 -4 36 -5 48 -2z m2675 -1202 c159
-77 195 -294 69 -419 -125 -126 -342 -90 -419 69 -10 22 -21 68 -23 102 -3 50
0 71 21 115 13 29 33 62 43 74 22 24 92 69 120 77 40 11 149 1 189 -18z
m-8815 -176 l0 -101 46 51 c27 30 54 51 67 51 20 0 20 -1 -4 -27 -66 -74 -65
-62 -9 -136 43 -57 48 -67 31 -67 -13 0 -36 21 -62 55 -49 65 -69 61 -69 -11
0 -37 -3 -44 -20 -44 -19 0 -20 7 -20 165 0 158 1 165 20 165 19 0 20 -7 20
-101z m810 41 c0 -57 1 -60 19 -50 30 16 76 12 101 -8 24 -20 38 -98 26 -147
-14 -57 -75 -82 -129 -54 -16 9 -22 9 -25 0 -2 -6 -10 -11 -18 -11 -11 0 -14
29 -14 165 0 158 1 165 20 165 18 0 20 -7 20 -60z m-1510 -50 c0 -7 6 -7 19 0
35 18 88 12 105 -12 23 -32 23 -208 1 -208 -12 0 -15 16 -15 85 0 72 -3 88
-20 105 -24 24 -38 25 -68 4 -20 -14 -22 -23 -22 -105 0 -82 -1 -89 -20 -89
-19 0 -20 7 -20 115 0 108 1 115 20 115 11 0 20 -5 20 -10z m568 -7 c17 -15
21 -33 24 -115 4 -97 -2 -114 -29 -87 -8 8 -17 8 -31 0 -53 -28 -112 0 -112
53 0 44 26 65 89 73 55 6 67 26 35 57 -21 22 -50 20 -75 -5 -11 -11 -28 -19
-37 -17 -14 3 -13 8 10 31 33 32 94 37 126 10z m354 -80 l3 -98 33 -3 c58 -6
72 17 72 115 0 67 3 83 15 83 12 0 15 -19 15 -115 0 -93 -3 -115 -14 -115 -8
0 -16 5 -18 11 -3 9 -9 9 -25 0 -34 -18 -78 -13 -99 10 -15 17 -20 40 -22 115
-4 89 -3 94 17 94 19 0 20 -7 23 -97z m238 87 c0 -7 6 -7 19 0 35 18 88 12
105 -12 23 -32 23 -208 1 -208 -12 0 -15 16 -15 85 0 72 -3 88 -20 105 -24 24
-38 25 -68 4 -20 -14 -22 -23 -22 -105 0 -82 -1 -89 -20 -89 -19 0 -20 7 -20
115 0 108 1 115 20 115 11 0 20 -5 20 -10z m820 -10 c11 -11 20 -24 20 -30 0
-5 -9 -10 -20 -10 -11 0 -20 4 -20 10 0 20 -41 33 -67 21 -41 -19 -27 -53 28
-71 59 -19 79 -36 79 -66 0 -38 -34 -64 -82 -64 -47 1 -68 12 -87 48 -10 19
-9 22 6 22 10 0 24 -9 31 -20 15 -25 74 -27 93 -4 19 24 2 43 -60 64 -29 10
-57 24 -62 31 -28 44 11 89 76 89 32 0 51 -6 65 -20z m120 10 c0 -7 6 -7 19 0
35 18 88 12 105 -12 23 -32 23 -208 1 -208 -12 0 -15 16 -15 85 0 72 -3 88
-20 105 -24 24 -38 25 -68 4 -20 -14 -22 -23 -22 -105 0 -82 -1 -89 -20 -89
-19 0 -20 7 -20 115 0 108 1 115 20 115 11 0 20 -5 20 -10z m460 -10 c11 -11
20 -24 20 -30 0 -5 -9 -10 -20 -10 -11 0 -20 4 -20 10 0 20 -41 33 -67 21 -41
-19 -27 -53 28 -71 59 -19 79 -36 79 -66 0 -38 -34 -64 -82 -64 -47 1 -68 12
-87 48 -10 19 -9 22 6 22 10 0 24 -9 31 -20 15 -25 74 -27 93 -4 19 24 2 43
-60 64 -29 10 -57 24 -62 31 -28 44 11 89 76 89 32 0 51 -6 65 -20z m5060
-1434 l0 -54 31 15 c24 12 36 13 55 4 33 -15 44 -49 44 -132 0 -55 -3 -69 -15
-69 -12 0 -15 15 -15 71 0 85 -11 109 -48 109 -44 0 -52 -16 -52 -102 0 -63
-3 -78 -15 -78 -13 0 -15 23 -15 145 0 122 2 145 15 145 11 0 15 -13 15 -54z
m759 29 c26 -13 41 -33 41 -56 0 -18 -25 -8 -35 14 -7 16 -20 23 -48 25 -46 4
-69 -12 -65 -46 2 -21 15 -30 68 -51 69 -28 89 -54 77 -103 -19 -75 -187 -55
-187 23 0 18 25 9 35 -13 25 -56 130 -39 123 20 -2 21 -13 30 -61 48 -76 30
-87 40 -87 79 0 62 74 94 139 60z m1264 -63 l67 -68 -73 -72 c-66 -65 -75 -71
-87 -57 -12 14 -6 23 43 73 l57 57 -56 56 c-52 52 -62 79 -31 79 7 0 43 -30
80 -68z m-9033 -87 c0 -118 -3 -145 -14 -145 -8 0 -16 5 -18 10 -2 7 -14 6
-35 -2 -60 -23 -103 18 -103 97 0 71 52 121 98 96 31 -16 32 -15 32 39 0 43 3
50 20 50 19 0 20 -7 20 -145z m320 63 l0 -82 39 38 c23 22 46 36 57 34 15 -3
13 -8 -15 -41 l-34 -38 42 -59 c40 -57 41 -60 19 -60 -16 0 -32 13 -53 45 -16
24 -34 43 -40 41 -5 -1 -11 -21 -13 -44 -3 -34 -7 -42 -23 -42 -18 0 -19 8
-19 145 0 138 1 145 20 145 18 0 20 -7 20 -82z m-915 37 c17 -16 25 -35 25
-58 0 -48 -29 -71 -99 -77 l-56 -5 -3 -52 c-3 -45 -6 -53 -23 -53 -18 0 -19 8
-19 135 l0 135 75 0 c67 0 79 -3 100 -25z m7894 -16 c36 -13 39 -23 43 -127 2
-51 -1 -72 -9 -72 -6 0 -15 5 -18 10 -4 7 -12 7 -25 0 -26 -14 -63 -13 -82 3
-51 39 -12 107 62 107 41 0 48 9 34 44 -8 21 -72 22 -80 1 -6 -16 -34 -21 -34
-7 0 16 44 48 71 51 3 1 20 -4 38 -10z m685 -11 c15 -13 29 -38 32 -55 l7 -33
-72 0 c-80 0 -88 -9 -47 -57 23 -27 26 -27 61 -14 42 15 58 8 29 -14 -29 -22
-79 -18 -109 8 -50 43 -42 142 14 172 37 20 56 18 85 -7z m213 7 c18 -13 24
-13 52 1 31 15 63 12 89 -8 19 -16 17 -188 -3 -188 -11 0 -15 19 -17 88 l-3
87 -28 3 c-47 6 -57 -12 -57 -99 0 -64 -3 -79 -15 -79 -12 0 -15 15 -15 71 0
85 -11 109 -48 109 -44 0 -52 -16 -52 -102 0 -63 -3 -78 -15 -78 -12 0 -15 18
-15 100 0 82 3 100 15 100 8 0 15 -4 15 -9 0 -6 12 -3 28 5 34 18 43 18 69 -1z
m542 4 c36 -13 39 -23 43 -127 2 -51 -1 -72 -9 -72 -6 0 -15 5 -18 10 -4 7
-12 7 -25 0 -26 -14 -63 -13 -82 3 -51 39 -12 107 62 107 41 0 48 9 34 44 -8
21 -72 22 -80 1 -6 -16 -34 -21 -34 -7 0 16 44 48 71 51 3 1 20 -4 38 -10z
m-8971 -55 c39 -45 25 -140 -25 -163 -40 -18 -73 -13 -104 18 -49 50 -35 146
25 171 32 14 79 3 104 -26z m334 -56 c3 -78 4 -83 26 -86 41 -6 52 14 52 94 0
67 2 74 20 74 19 0 20 -7 20 -100 0 -93 -1 -100 -20 -100 -11 0 -20 5 -20 10
0 7 -6 7 -19 0 -29 -15 -62 -12 -83 7 -15 13 -18 31 -18 100 0 76 2 83 20 83
17 0 19 -8 22 -82z m-98 -590 c3 -13 6 -33 6 -45 0 -40 18 -24 24 22 l7 45 60
0 59 0 0 -160 0 -160 -40 0 -40 0 0 66 c0 80 -15 76 -25 -6 -7 -57 -8 -60 -35
-60 -26 0 -28 3 -34 60 -9 74 -26 70 -26 -6 l0 -55 -37 3 -38 3 -1 158 -1 157
58 0 c50 0 57 -2 63 -22z m560 -85 c-3 -60 -7 -114 -10 -120 -2 -7 -16 -13
-32 -13 -29 0 -29 1 -35 68 -4 37 -7 91 -7 120 l0 52 44 0 45 0 -5 -107z m288
90 c21 -18 24 -69 7 -107 -10 -20 -9 -28 6 -42 14 -14 16 -30 13 -77 -3 -36
-10 -62 -19 -68 -8 -5 -52 -8 -99 -7 l-85 3 -3 158 -3 157 82 0 c63 0 87 -4
101 -17z m972 -4 c15 -22 36 -18 36 7 0 21 266 20 337 -1 70 -21 127 -85 143
-159 12 -60 11 -76 -8 -92 -12 -8 -11 -17 2 -48 21 -51 20 -54 -8 -27 l-24 22
-16 -22 c-9 -13 -16 -18 -16 -11 0 6 -7 12 -16 12 -8 0 -46 20 -84 45 -39 25
-100 55 -137 66 -86 26 -143 59 -168 98 -11 17 -23 31 -27 31 -7 0 -68 84 -68
94 0 15 41 4 54 -15z m-164 -1 c0 -6 7 -20 17 -30 15 -17 15 -19 0 -36 -24
-26 -25 -177 -1 -186 9 -3 14 -15 12 -28 -3 -20 -8 -23 -43 -20 -61 6 -65 13
-65 114 0 49 -5 98 -11 109 -7 14 -7 29 2 54 12 32 17 35 51 35 22 0 38 -5 38
-12z m-570 -38 c5 -8 10 -70 10 -138 l0 -123 -41 3 -41 3 -2 95 c-4 121 -4
122 -16 115 -6 -3 -10 -52 -10 -111 l0 -104 -40 0 -40 0 0 134 c0 83 4 136 10
138 6 2 44 3 86 3 56 0 77 -4 84 -15z m183 10 l47 1 0 -136 c0 -131 -1 -137
-25 -160 -19 -20 -34 -25 -72 -25 -51 0 -93 21 -93 45 0 20 49 31 73 16 13 -9
23 -9 29 -3 18 18 -1 31 -35 25 -56 -9 -67 12 -67 122 0 109 12 132 64 120 17
-4 52 -6 79 -5z m227 -5 c30 -16 54 -68 48 -107 -3 -20 -10 -23 -55 -26 l-53
-3 0 -40 c0 -28 4 -39 15 -39 10 0 15 10 15 30 0 28 3 30 34 30 43 0 50 -11
36 -56 -16 -48 -50 -68 -102 -61 -70 9 -83 32 -83 143 0 92 1 97 28 120 32 28
75 31 117 9z m-1255 -32 c10 -61 18 -89 21 -73 1 8 6 36 9 63 6 45 7 47 39 47
35 0 46 -15 46 -67 0 -13 5 -23 10 -23 6 0 10 10 10 23 0 52 11 67 47 67 l35
0 -5 -42 c-3 -24 -11 -84 -18 -135 l-12 -91 -31 -4 c-54 -6 -66 0 -66 35 0 44
-15 66 -23 35 -4 -12 -7 -33 -7 -45 0 -24 -18 -30 -66 -25 l-31 4 -15 121 c-8
67 -13 128 -10 135 2 6 17 12 33 12 25 0 29 -4 34 -37z m-947 -249 c17 -12 46
-16 114 -15 50 1 93 3 96 6 3 2 13 -7 24 -20 17 -22 28 -25 79 -25 35 0 58 -4
54 -9 -8 -14 14 -24 49 -23 17 1 38 -3 46 -8 11 -7 11 -10 2 -10 -7 0 -10 -4
-7 -10 12 -19 45 -11 45 10 0 36 27 22 35 -17 7 -39 78 -168 105 -191 28 -24
-157 -5 -210 21 -25 13 -61 22 -80 21 -19 0 -41 5 -48 13 -8 8 -36 13 -72 13
-37 0 -76 8 -106 20 -26 12 -64 20 -83 19 -20 -2 -57 -2 -83 -1 l-48 2 0 98
c0 63 4 102 12 110 17 17 49 15 76 -4z m2160 -24 c28 0 54 7 73 21 25 18 30
18 35 5 3 -9 11 -16 18 -16 17 0 114 -87 121 -109 3 -10 14 -21 23 -23 10 -3
33 -36 51 -74 18 -38 45 -93 59 -123 33 -67 85 -109 182 -147 126 -49 221
-146 304 -311 l26 -52 0 -281 c0 -281 0 -281 -21 -275 -11 4 -36 4 -55 0 -27
-5 -38 -14 -55 -48 -30 -58 -39 -285 -16 -385 8 -37 18 -85 22 -107 13 -80 77
-255 107 -294 16 -21 18 -44 18 -195 0 -94 -5 -189 -11 -211 -15 -53 -91 -129
-144 -144 -28 -8 -307 -11 -917 -11 l-878 0 0 23 c0 16 9 28 25 35 15 7 25 20
26 34 1 21 2 20 11 -5 10 -27 13 -28 66 -25 l57 3 2 187 3 187 -34 6 c-18 4
-46 5 -62 3 -23 -2 -30 -9 -34 -33 l-5 -30 -135 0 -135 0 -3 28 c-4 30 -6 30
-122 32 -36 0 -95 1 -131 3 l-66 2 -6 48 c-3 26 -24 90 -47 142 -47 106 -49
149 -15 265 9 33 17 93 18 133 0 55 4 75 16 82 12 7 13 12 4 18 -23 15 -33 59
-20 91 14 39 26 39 62 1 16 -17 49 -42 72 -56 48 -28 51 -36 25 -62 -41 -41
-52 -67 -52 -122 1 -98 48 -168 145 -211 74 -34 218 -33 298 0 l57 25 63 -22
c34 -12 91 -24 125 -28 35 -4 65 -12 67 -18 2 -6 16 -54 31 -106 29 -102 45
-122 105 -141 41 -13 60 -5 211 84 61 36 88 58 88 71 0 11 -22 60 -49 111 -27
50 -47 96 -43 101 8 11 102 74 112 74 3 0 25 -29 49 -64 23 -36 48 -69 54 -74
7 -6 37 -13 67 -17 l55 -6 113 112 c61 62 112 120 112 129 0 18 -50 94 -78
120 -29 26 -84 100 -80 108 19 45 78 122 109 144 40 29 99 119 99 153 0 12 5
26 11 32 7 7 15 93 20 230 4 120 10 246 13 281 2 34 0 64 -4 67 -10 6 -62 151
-59 167 3 19 -16 61 -35 77 -26 22 -1 41 54 41 46 0 78 -18 67 -37 -3 -5 6 -9
21 -8 17 0 27 -5 27 -15 0 -8 8 -16 18 -18 23 -5 22 7 -8 51 -41 59 -69 68
-200 65 -74 -2 -118 1 -125 8 -7 7 -26 8 -51 4 -37 -7 -42 -5 -57 20 -20 32
-68 74 -97 84 -11 4 -38 29 -60 56 -22 26 -68 68 -102 92 -35 23 -63 45 -63
48 0 3 22 5 49 5 35 -1 57 -7 71 -20 30 -27 135 -33 179 -11 17 10 36 28 41
41 l10 25 32 -20 c20 -12 51 -20 76 -20z m-687 5 c60 0 112 -5 120 -11 8 -6
30 -18 49 -27 41 -18 122 -96 114 -109 -3 -4 -18 -8 -34 -8 -16 0 -31 -4 -34
-9 -8 -12 39 -31 75 -31 29 0 174 -54 183 -69 2 -3 -60 -5 -138 -3 -136 4
-253 -8 -368 -38 -21 -6 -53 -14 -72 -19 -36 -9 -113 -45 -186 -86 -61 -34
-133 -97 -181 -157 -36 -46 -39 -48 -39 -23 0 33 55 118 114 175 44 43 57 72
36 85 -5 3 -10 1 -10 -6 0 -6 -8 -9 -20 -6 -14 4 -25 -2 -36 -19 -9 -13 -22
-24 -30 -24 -7 0 -18 -8 -23 -17 -16 -27 -13 4 4 52 8 22 15 46 15 53 0 20 52
122 62 122 4 0 8 7 8 15 0 7 6 18 14 22 7 4 19 18 25 31 8 15 18 21 28 18 9
-4 17 1 20 14 10 36 146 97 183 82 8 -4 63 -7 121 -7z m-501 -197 c0 -5 -3 -7
-7 -5 -5 3 -9 -15 -10 -40 -2 -25 -9 -59 -18 -76 -8 -16 -15 -52 -15 -78 0
-26 -5 -51 -11 -54 -6 -4 -8 -14 -5 -22 5 -13 0 -14 -25 -9 -17 3 -61 6 -98 6
-50 1 -62 3 -48 11 9 6 15 14 12 19 -3 5 5 12 17 16 24 7 118 92 118 106 0 16
29 40 40 33 6 -4 10 5 10 19 0 14 -4 26 -10 26 -16 0 -12 30 5 36 8 4 15 12
15 20 0 8 6 11 15 8 8 -4 15 -10 15 -16z m944 -106 c17 -5 38 -19 48 -33 18
-24 18 -25 -21 -100 -31 -61 -40 -92 -46 -154 -12 -120 24 -283 75 -348 26
-33 25 -53 -5 -89 -69 -82 -208 -162 -300 -173 -112 -14 -277 45 -374 134 -14
13 -36 30 -48 38 -28 19 -120 140 -167 219 -19 33 -44 87 -55 122 -19 56 -20
65 -7 90 37 70 201 185 336 235 161 59 450 89 564 59z m242 -94 c25 -11 48
-28 51 -37 3 -9 16 -27 28 -41 19 -21 64 -124 65 -148 0 -4 5 -22 11 -39 6
-18 9 -41 7 -50 -3 -14 -8 -11 -23 15 -13 21 -27 32 -42 32 -29 0 -40 -26 -24
-52 7 -12 8 -17 2 -13 -6 3 -11 -1 -11 -10 0 -11 5 -15 15 -11 23 8 51 -46 65
-122 14 -80 14 -245 1 -271 -6 -10 -8 -21 -5 -24 6 -5 -20 -89 -36 -116 -8
-13 -10 -11 -11 9 -3 58 -9 82 -34 142 -15 35 -29 71 -32 81 -3 9 -9 17 -14
17 -5 0 -26 16 -48 35 -21 19 -43 35 -49 35 -6 0 -13 9 -17 19 -3 11 -12 22
-20 24 -13 6 -63 95 -69 126 -2 9 -6 23 -9 31 -15 40 -17 159 -3 218 15 67 32
99 74 145 31 33 66 35 128 5z m-1263 -140 c15 -7 27 -15 27 -18 0 -3 -21 -11
-47 -18 -114 -30 -233 -113 -233 -163 0 -16 4 -19 23 -14 22 7 62 35 107 75
29 26 103 60 131 60 25 0 25 -30 -1 -37 -11 -3 -20 -9 -20 -14 0 -5 -12 -15
-27 -23 -43 -23 -158 -139 -201 -203 -87 -127 -180 -346 -183 -428 -1 -16 -4
-41 -9 -55 -14 -46 -23 5 -17 92 6 73 5 80 -12 85 -25 6 -42 49 -41 104 0 24
0 64 -1 89 -2 61 2 109 8 88 7 -27 33 -9 33 23 0 19 -5 29 -15 29 -8 0 -15 3
-15 6 0 14 25 51 48 73 15 13 21 20 15 17 -9 -5 -13 0 -13 14 0 22 53 81 84
93 10 4 16 13 13 20 -5 16 62 66 90 67 12 0 23 5 25 12 11 31 180 49 231 26z
m98 -148 c5 -8 26 -54 48 -101 22 -48 69 -123 104 -168 62 -78 209 -210 234
-211 18 0 31 -29 33 -75 5 -84 2 -92 -49 -129 -27 -20 -53 -36 -57 -36 -5 0
-9 38 -9 83 0 75 -3 88 -28 125 -54 82 -153 121 -228 89 -49 -20 -103 -70
-124 -114 -45 -93 -2 -223 89 -270 33 -17 27 -26 -29 -43 -22 -7 -79 -28 -128
-47 -81 -32 -90 -34 -120 -22 -39 16 -193 162 -214 203 -26 49 3 169 79 326
81 168 156 265 283 359 69 52 100 60 116 31z m-678 -182 c9 -5 17 -15 17 -23
0 -20 -10 -19 -25 2 -14 19 -39 8 -31 -13 8 -21 -30 -32 -95 -27 -36 3 -59 1
-63 -6 -5 -7 -45 -11 -107 -11 l-100 0 3 32 c3 29 7 32 38 35 19 2 76 7 125
11 122 11 216 11 238 0z m1747 -163 c39 -20 107 -107 120 -153 5 -20 10 -64
10 -97 0 -52 -6 -71 -43 -137 -143 -262 -427 -504 -666 -568 -82 -22 -291 -7
-291 21 0 5 15 16 33 25 81 42 205 136 244 186 24 29 48 59 53 66 23 27 130
243 130 262 0 42 -29 17 -63 -55 -20 -41 -50 -95 -66 -119 -17 -25 -31 -48
-31 -53 0 -15 -101 -126 -143 -157 -74 -55 -164 -106 -254 -143 -80 -33 -97
-37 -188 -37 l-100 -1 -52 38 c-51 38 -74 80 -54 100 18 18 13 36 -9 30 -12
-3 -20 0 -20 6 0 7 5 9 10 6 6 -3 10 1 10 10 0 9 -4 13 -10 10 -5 -3 -10 -2
-10 4 0 18 33 29 61 21 34 -10 69 -2 69 16 0 7 10 15 23 17 12 2 8 3 -8 2 -46
-4 -85 6 -85 21 0 14 58 49 67 41 2 -3 14 4 25 15 20 20 42 21 106 2 16 -5 22
-2 22 9 0 8 -9 17 -21 20 -12 3 -18 10 -15 16 7 11 45 9 64 -3 8 -5 12 0 12
13 0 15 9 22 38 27 72 13 275 98 349 147 23 15 46 27 51 27 6 0 12 7 16 15 3
8 10 15 16 15 22 0 81 70 78 93 -4 31 -49 40 -65 12 -12 -18 -13 -17 -11 13 1
17 3 32 4 32 1 0 21 -7 45 -15 128 -46 395 54 480 180 27 40 29 40 69 20z
m-1750 -441 c0 -8 0 -17 0 -21 0 -5 -12 -9 -28 -11 -15 -1 -54 -5 -87 -8 -33
-3 -66 -11 -73 -16 -9 -8 -20 -7 -38 2 -19 11 -27 11 -36 2 -7 -7 -40 -12 -75
-12 -57 0 -63 2 -63 20 0 25 43 48 62 33 13 -10 52 -6 152 14 69 14 186 12
186 -3z m1794 -223 c25 -33 46 -65 46 -73 0 -13 -178 -188 -192 -188 -8 0 -88
115 -88 127 0 10 172 192 182 193 4 0 27 -27 52 -59z m-451 -348 l25 -68 -21
-18 c-42 -33 -168 -99 -181 -94 -8 3 -21 32 -31 64 -9 32 -22 70 -27 85 -12
33 -4 48 25 48 12 0 56 11 97 24 41 13 78 24 81 25 4 1 18 -29 32 -66z m-947
-370 c3 -27 9 -52 12 -58 8 -12 20 30 21 73 l1 32 60 0 60 0 0 -165 0 -165
-40 0 -40 0 -1 73 c0 79 -11 70 -24 -20 -6 -50 -9 -53 -35 -53 -27 0 -28 2
-35 61 -8 71 -25 62 -25 -13 l0 -48 -35 0 -35 0 0 165 0 165 54 0 55 0 7 -47z
m560 -30 c-3 -42 -6 -98 -6 -125 l0 -48 -35 0 c-33 0 -35 2 -35 33 0 19 -3 75
-6 125 l-7 92 48 0 48 0 -7 -77z m-314 -47 c4 -32 9 -61 12 -63 2 -2 7 26 11
62 l7 65 33 0 c36 0 45 -13 45 -60 0 -49 17 -42 24 10 7 49 7 50 41 50 41 0
39 10 20 -145 -8 -66 -15 -121 -15 -123 0 -2 -21 -2 -47 0 l-48 3 -3 43 c-3
43 -22 60 -22 20 0 -13 -3 -33 -6 -46 -6 -20 -12 -23 -53 -20 l-46 3 -16 128
c-8 70 -13 130 -10 133 3 3 19 4 36 2 29 -3 30 -5 37 -62z m-227 -233 c88 -1
168 -2 178 -2 12 -1 17 -9 17 -31 l0 -30 -240 0 -240 0 0 29 c0 36 36 134 67
181 12 19 28 51 35 70 12 33 13 26 18 -90 l5 -125 160 -2z m6285 -1313 c49
-13 109 -66 131 -114 11 -25 19 -64 19 -101 0 -75 -25 -131 -76 -173 -146
-121 -355 -19 -355 173 0 154 133 256 281 215z m470 0 c49 -13 109 -66 131
-114 11 -25 19 -64 19 -101 0 -75 -25 -131 -76 -173 -145 -120 -355 -19 -355
172 0 71 25 129 74 171 60 52 130 67 207 45z m470 0 c49 -13 109 -66 131 -114
11 -25 19 -64 19 -101 0 -75 -25 -131 -76 -173 -146 -121 -355 -19 -355 173 0
154 133 256 281 215z m470 0 c49 -13 109 -66 131 -114 11 -25 19 -64 19 -101
0 -75 -25 -131 -76 -173 -146 -121 -355 -19 -355 173 0 154 133 256 281 215z
m-8271 -61 c17 -6 36 -19 41 -29 14 -27 12 -73 -4 -95 -12 -17 -12 -22 5 -44
10 -13 19 -39 19 -58 0 -80 -40 -103 -180 -103 l-100 0 0 170 0 170 94 0 c51
0 107 -5 125 -11z m746 -106 l28 -118 14 65 c7 36 18 89 24 118 10 52 11 52
48 52 l38 0 25 -117 24 -118 28 118 28 117 34 0 c22 0 34 -5 34 -13 0 -11 -49
-185 -86 -309 -4 -13 -16 -18 -39 -18 -37 0 -33 -9 -66 158 -6 34 -15 64 -19
67 -4 2 -12 -26 -19 -63 -31 -169 -29 -163 -69 -160 l-35 3 -29 100 c-15 55
-37 130 -47 168 l-19 67 37 0 38 0 28 -117z m435 63 l0 -54 30 15 c34 17 74
11 103 -14 14 -14 17 -34 17 -125 l0 -108 -29 0 -29 0 -4 90 c-3 101 -13 119
-55 104 -28 -9 -28 -11 -31 -102 l-3 -92 -34 0 -35 0 0 170 0 170 35 0 35 0 0
-54z m1970 -28 c12 -46 27 -103 34 -128 l12 -45 22 90 c13 50 27 107 33 128
l10 37 54 0 55 0 0 -170 0 -170 -35 0 -35 0 -1 128 -1 127 -32 -125 -32 -125
-39 0 -39 0 -32 125 -32 125 -1 -127 -1 -128 -35 0 -35 0 0 170 0 170 54 0 54
0 22 -82z m630 -88 l0 -170 -35 0 -35 0 0 170 0 170 35 0 35 0 0 -170z m686
151 c51 -23 74 -68 74 -145 0 -66 -17 -111 -54 -146 -25 -23 -37 -25 -132 -28
l-104 -4 0 171 0 171 88 0 c63 0 98 -6 128 -19z m-3996 -36 c0 -28 4 -35 20
-35 15 0 20 -7 20 -25 0 -18 -5 -25 -20 -25 -18 0 -20 -7 -20 -71 0 -62 2 -71
20 -76 13 -4 20 -14 20 -30 0 -22 -3 -24 -42 -21 -55 4 -68 28 -68 126 0 57
-3 72 -15 72 -9 0 -15 9 -15 25 0 16 6 25 15 25 10 0 15 10 15 28 0 36 6 42
42 42 25 0 28 -3 28 -35z m1250 0 c0 -28 4 -35 20 -35 15 0 20 -7 20 -25 0
-18 -5 -25 -20 -25 -18 0 -20 -7 -20 -71 0 -62 2 -71 20 -76 13 -4 20 -14 20
-30 0 -22 -3 -24 -42 -21 -55 4 -68 28 -68 126 0 57 -3 72 -15 72 -9 0 -15 9
-15 25 0 16 6 25 15 25 10 0 15 10 15 28 0 36 6 42 42 42 25 0 28 -3 28 -35z
m2190 0 c0 -28 4 -35 20 -35 15 0 20 -7 20 -25 0 -18 -5 -25 -20 -25 -18 0
-20 -7 -20 -71 0 -62 2 -71 20 -76 13 -4 20 -14 20 -30 0 -22 -3 -24 -42 -21
-55 4 -68 28 -68 126 0 57 -3 72 -15 72 -9 0 -15 9 -15 25 0 16 6 25 15 25 10
0 15 10 15 28 0 16 3 32 7 35 3 4 19 7 35 7 25 0 28 -3 28 -35z m-3596 -64
c28 -29 31 -37 31 -96 0 -57 -3 -67 -29 -94 -55 -57 -158 -50 -196 12 -24 39
-26 116 -4 158 34 66 141 77 198 20z m1234 28 c40 -14 50 -44 54 -157 l3 -92
-32 0 c-17 0 -35 5 -38 10 -4 7 -14 5 -28 -5 -28 -19 -77 -19 -105 1 -17 12
-22 25 -22 59 0 49 17 72 58 80 69 15 87 22 87 35 0 22 -63 26 -71 6 -4 -10
-19 -16 -41 -16 -31 0 -34 2 -27 23 18 60 85 83 162 56z m411 -4 c28 -14 41
-33 41 -61 0 -19 -56 -19 -67 0 -14 24 -73 25 -73 1 0 -12 55 -35 86 -35 6 0
23 -9 38 -21 46 -36 32 -108 -25 -128 -74 -26 -149 -4 -167 49 -11 29 -10 30
22 30 19 0 39 -7 46 -15 7 -8 28 -15 47 -15 54 0 40 31 -22 48 -86 24 -115 69
-79 120 29 42 101 55 153 27z m259 4 c40 -14 50 -44 54 -157 l3 -92 -32 0
c-17 0 -35 5 -38 10 -4 7 -14 5 -28 -5 -28 -19 -77 -19 -105 1 -17 12 -22 25
-22 59 0 49 17 72 58 80 69 15 87 22 87 35 0 22 -63 26 -71 6 -4 -10 -19 -16
-41 -16 -31 0 -34 2 -27 23 18 60 85 83 162 56z m290 -5 c33 -23 52 -67 52
-119 0 -103 -80 -167 -148 -119 l-22 15 0 -60 0 -61 -35 0 -35 0 0 175 0 175
35 0 c19 0 35 -5 35 -11 0 -5 10 -3 22 5 29 20 67 20 96 0z m290 0 c33 -23 52
-67 52 -119 0 -103 -80 -167 -148 -119 l-22 15 0 -60 0 -61 -35 0 -35 0 0 175
0 175 35 0 c19 0 35 -5 35 -11 0 -5 10 -3 22 5 29 20 67 20 96 0z m1984 -23
c21 -23 28 -42 28 -71 l0 -40 -80 0 c-70 0 -80 -2 -80 -18 0 -39 55 -57 80
-27 14 17 80 21 80 5 0 -5 -12 -24 -27 -40 -53 -59 -153 -48 -188 20 -23 44
-20 131 6 164 29 37 55 47 109 42 34 -3 51 -11 72 -35z m638 14 c10 -9 23 -30
29 -46 10 -28 9 -29 -24 -29 -24 0 -38 6 -45 20 -14 26 -56 26 -70 1 -15 -30
-12 -97 6 -115 23 -24 53 -20 66 9 8 18 19 25 39 25 36 0 40 -8 24 -47 -30
-71 -134 -83 -189 -22 -26 29 -28 36 -24 100 4 70 20 101 63 120 30 13 103 4
125 -16z m272 -14 c21 -23 28 -42 28 -71 l0 -40 -80 0 c-70 0 -80 -2 -80 -18
0 -39 55 -57 80 -27 14 17 80 21 80 5 0 -5 -12 -24 -27 -40 -53 -59 -153 -48
-188 20 -23 44 -20 131 6 164 29 37 55 47 109 42 34 -3 51 -11 72 -35z m-2190
-68 c3 -94 4 -98 26 -101 43 -6 52 13 52 109 l0 89 35 0 35 0 0 -125 0 -125
-35 0 c-19 0 -35 4 -35 9 0 6 -12 3 -27 -5 -39 -19 -66 -18 -97 7 -25 20 -26
24 -26 130 l0 109 35 0 34 0 3 -97z m558 -28 l0 -125 -35 0 -35 0 0 125 0 125
35 0 35 0 0 -125z m871 38 l23 -88 26 85 26 85 37 3 37 3 -44 -123 -44 -123
-37 0 -37 0 -44 120 c-24 66 -44 121 -44 123 0 1 17 2 39 2 l38 0 24 -87z
m249 -38 l0 -125 -35 0 -35 0 0 125 0 125 35 0 35 0 0 -125z m970 110 c37 -19
46 -49 26 -81 -15 -23 -15 -26 4 -52 17 -23 19 -33 11 -55 -14 -36 -46 -47
-137 -47 l-74 0 0 118 c0 65 3 122 7 125 13 13 134 7 163 -8z m153 -80 l30
-90 29 93 c26 83 31 92 53 92 l24 0 -55 -157 c-56 -162 -75 -193 -120 -193
-17 0 -24 6 -24 20 0 13 7 20 20 20 11 0 27 12 37 26 17 26 16 30 -25 148 -23
67 -42 125 -42 129 0 5 10 7 22 5 17 -2 27 -20 51 -93z m-5933 -1270 c0 -58 2
-105 5 -105 2 0 25 23 51 50 27 29 55 50 67 50 18 0 15 -6 -21 -43 -23 -23
-42 -47 -42 -51 0 -5 11 -24 25 -43 14 -18 37 -49 51 -68 24 -32 25 -35 7 -35
-12 0 -36 22 -63 60 -24 33 -46 60 -50 60 -18 0 -30 -29 -30 -72 0 -36 -4 -48
-15 -48 -13 0 -15 26 -15 175 0 149 2 175 15 175 12 0 15 -18 15 -105z m3880
4 l0 -101 46 51 c31 34 54 51 70 51 13 0 24 -3 24 -7 0 -4 -20 -28 -45 -53
l-44 -45 55 -72 55 -73 -28 0 c-22 0 -36 12 -67 55 -22 31 -45 54 -50 52 -6
-2 -12 -27 -14 -55 -3 -48 -5 -52 -28 -52 l-24 0 0 175 0 175 25 0 25 0 0
-101z m-405 67 c35 -23 44 -80 17 -115 -20 -27 -20 -28 -1 -44 43 -37 31 -115
-22 -142 -17 -9 -57 -15 -104 -15 l-75 0 0 171 0 172 80 -6 c48 -3 90 -12 105
-21z m1144 -2 c24 -20 31 -34 31 -63 0 -41 -11 -60 -87 -148 l-54 -62 78 -3
c65 -3 78 -6 81 -20 3 -16 -7 -18 -107 -18 -138 0 -139 3 -37 118 41 45 77 94
80 108 10 37 -17 74 -52 74 -35 0 -48 -9 -61 -43 -7 -19 -17 -27 -28 -25 -31
6 -26 37 10 73 45 45 100 48 146 9z m269 -91 c2 -105 4 -113 22 -113 11 0 20
-7 20 -15 0 -8 -9 -15 -20 -15 -17 0 -20 -7 -20 -40 0 -36 -2 -40 -25 -40 -22
0 -25 4 -25 40 l0 40 -75 0 c-46 0 -75 4 -75 11 0 5 35 64 77 130 62 95 82
119 98 117 19 -3 20 -11 23 -115z m-5299 92 c46 -23 56 -80 20 -116 l-20 -20
25 -24 c18 -17 26 -34 26 -58 0 -67 -51 -96 -167 -97 l-53 0 0 165 0 165 70 0
c43 0 82 -6 99 -15z m9088 -145 c20 19 47 48 61 63 19 22 27 25 38 16 8 -6 14
-17 14 -23 0 -6 -34 -45 -75 -86 l-75 -74 -75 74 c-77 77 -84 87 -63 108 10
10 26 -1 75 -50 l63 -62 37 34z m-8316 51 c28 -28 29 -33 29 -125 0 -75 -3
-96 -14 -96 -8 0 -17 7 -20 16 -5 14 -8 14 -28 0 -75 -53 -171 40 -105 102 13
12 42 23 75 28 45 6 52 10 52 28 0 31 -19 46 -57 46 -22 0 -37 -7 -45 -20 -15
-23 -38 -27 -38 -7 0 15 26 41 50 50 38 14 72 6 101 -22z m3257 -74 c3 -92 4
-98 27 -109 19 -9 29 -7 50 6 24 16 25 21 25 111 0 95 0 95 25 95 l25 0 0
-124 0 -125 -52 -1 c-29 0 -64 -1 -78 -1 -15 -1 -34 10 -47 26 -21 23 -23 36
-23 126 0 98 0 100 23 97 21 -3 22 -8 25 -101z m619 81 c18 -19 22 -39 25
-125 4 -102 3 -103 -19 -103 -13 0 -23 4 -23 9 0 6 -15 4 -33 -4 -62 -26 -120
6 -120 66 0 46 32 71 97 77 61 5 71 19 39 54 -21 23 -44 23 -76 -2 -27 -22
-57 -27 -57 -10 0 6 11 22 25 35 33 34 112 36 142 3z m901 -139 c-3 -147 -5
-162 -23 -175 -23 -17 -67 -15 -73 3 -2 7 8 17 22 23 l26 10 0 150 0 150 26 0
25 0 -3 -161z m229 139 c18 -19 22 -39 25 -125 4 -102 3 -103 -19 -103 -13 0
-23 4 -23 9 0 6 -15 4 -33 -4 -62 -26 -120 6 -120 66 0 46 32 71 97 77 61 5
71 19 39 54 -21 23 -44 23 -76 -2 -27 -22 -57 -27 -57 -10 0 6 11 22 25 35 33
34 112 36 142 3z m136 10 c4 -10 7 -10 18 0 19 18 89 15 111 -5 17 -15 19 -15
36 0 28 25 96 22 122 -5 17 -19 20 -35 20 -125 0 -96 -1 -103 -20 -103 -18 0
-20 7 -20 88 0 99 -11 125 -53 125 -49 0 -57 -17 -57 -119 0 -94 0 -94 -25
-94 l-25 0 0 100 c0 95 -1 101 -22 109 -12 4 -34 5 -48 1 -24 -6 -25 -9 -28
-108 -3 -101 -3 -102 -27 -102 l-25 0 0 125 c0 117 1 125 19 125 11 0 21 -6
24 -12z m-5763 -91 c0 -102 7 -117 54 -117 54 0 66 22 66 122 0 72 3 88 15 88
13 0 15 -20 15 -120 0 -100 -2 -120 -15 -120 -8 0 -15 7 -15 16 0 14 -2 14
-22 0 -31 -22 -80 -20 -106 4 -20 19 -22 31 -22 120 0 82 3 100 15 100 12 0
15 -17 15 -93z m4707 -858 c82 -40 153 -150 153 -239 0 -53 -30 -127 -70 -173
-127 -144 -349 -115 -434 55 -45 90 -33 202 30 285 27 36 99 82 147 94 46 11
125 1 174 -22z m2401 -237 c2 -175 0 -213 -12 -218 -7 -3 -42 12 -77 34 -149
91 -269 172 -269 182 0 9 97 75 275 187 82 52 80 57 83 -185z m-4690 172 c21
-15 22 -21 22 -174 0 -201 12 -190 -191 -190 -147 0 -148 0 -168 26 -19 24
-21 40 -21 167 0 193 -6 187 190 187 116 0 150 -3 168 -16z"/>
<path d="M1679 23423 c-76 -47 -78 -145 -3 -194 53 -35 123 -17 158 41 57 97
-60 212 -155 153z"/>
<path d="M9557 23442 c-13 -14 -17 -39 -17 -104 0 -124 -15 -118 281 -118 196
0 249 3 265 14 16 12 19 27 19 106 0 79 -3 94 -19 106 -16 11 -69 14 -266 14
-227 0 -248 -2 -263 -18z"/>
<path d="M6926 21087 c-18 -13 -17 -17 15 -118 40 -124 46 -134 82 -120 32 12
32 8 -16 151 -33 98 -47 112 -81 87z"/>
<path d="M5596 19772 c-2 -4 -7 -24 -11 -45 -9 -45 10 -78 54 -97 41 -16 57
-8 76 37 15 35 15 38 -2 51 -33 24 -112 61 -117 54z"/>
<path d="M5823 18955 c-31 -13 -122 -72 -133 -85 -20 -24 -86 -61 -143 -80
-89 -30 -130 -61 -214 -162 -80 -95 -91 -128 -66 -211 36 -122 49 -139 96
-121 12 4 11 15 -8 67 -41 114 -40 120 11 178 104 117 184 172 281 194 64 15
75 20 94 51 27 44 85 84 121 84 31 0 45 31 34 75 -7 28 -25 31 -73 10z"/>
<path d="M5696 18505 c-3 -8 -12 -15 -21 -15 -8 0 -15 -8 -15 -17 0 -9 -9 -26
-19 -37 -18 -19 -18 -29 -10 -111 9 -92 33 -190 51 -212 5 -6 16 -9 24 -6 13
5 18 -5 15 -37 0 -8 8 -26 18 -39 19 -24 19 -23 17 135 0 87 0 179 2 204 4 58
-6 110 -26 133 -19 21 -28 22 -36 2z"/>
<path d="M4629 17504 c-29 -65 -36 -147 -15 -179 9 -14 21 -25 26 -25 15 0 30
45 41 119 18 122 -13 173 -52 85z"/>
<path d="M5642 17538 c-18 -24 -42 -108 -42 -152 0 -28 7 -52 19 -67 l18 -23
19 29 c25 39 35 225 11 225 -8 0 -19 -6 -25 -12z"/>
<path d="M6120 16534 l0 -66 60 4 c89 6 124 50 84 106 -13 19 -24 22 -80 22
l-64 0 0 -66z"/>
<path d="M6120 16340 l0 -70 69 0 c61 0 72 3 85 22 22 31 20 74 -4 98 -16 16
-33 20 -85 20 l-65 0 0 -70z"/>
<path d="M4326 16471 c-61 -67 -30 -211 45 -211 43 0 65 15 78 51 21 60 11
128 -24 162 -22 23 -78 22 -99 -2z"/>
<path d="M5756 16471 c-61 -67 -30 -211 45 -211 43 0 65 15 78 51 21 60 11
128 -24 162 -22 23 -78 22 -99 -2z"/>
<path d="M6546 16471 c-61 -67 -30 -211 45 -211 43 0 65 15 78 51 21 60 11
128 -24 162 -22 23 -78 22 -99 -2z"/>
<path d="M6630 15667 l0 -143 53 6 c28 3 58 9 65 13 40 25 59 142 33 205 -16
37 -59 62 -110 62 l-41 0 0 -143z"/>
<path d="M4676 15707 c-38 -28 -38 -126 0 -168 36 -40 105 -13 120 46 9 36 -2
94 -22 116 -20 22 -72 25 -98 6z"/>
<path d="M5766 15707 c-38 -28 -38 -126 0 -168 36 -40 105 -13 120 46 9 36 -2
94 -22 116 -20 22 -72 25 -98 6z"/>
<path d="M6372 14714 c-19 -13 -22 -24 -22 -78 0 -70 10 -86 56 -86 41 0 56
19 62 80 4 42 1 52 -21 74 -30 30 -44 32 -75 10z"/>
<path d="M3392 14738 l3 -63 56 0 c67 0 89 15 89 60 0 47 -26 65 -94 65 l-57
0 3 -62z"/>
<path d="M5830 14740 l0 -60 53 0 c60 0 87 19 87 62 0 39 -29 58 -88 58 l-52
0 0 -60z"/>
<path d="M6115 14705 c-19 -18 -25 -35 -25 -67 0 -59 22 -88 65 -88 44 0 65
29 65 91 0 39 -5 51 -26 68 -34 27 -50 26 -79 -4z"/>
<path d="M6615 14705 c-19 -18 -25 -35 -25 -67 0 -59 22 -88 65 -88 44 0 65
29 65 91 0 39 -5 51 -26 68 -34 27 -50 26 -79 -4z"/>
<path d="M5265 12182 c-48 -2 -82 -8 -87 -15 -9 -14 -11 -109 -2 -131 5 -13
25 -16 114 -16 89 0 109 3 114 16 8 22 7 117 -2 130 -10 16 -46 20 -137 16z"/>
<path d="M5690 11265 c-17 -21 -23 -81 -10 -105 23 -42 76 -45 102 -6 13 19 9
81 -8 104 -18 26 -65 30 -84 7z"/>
<path d="M9945 10064 c-83 -30 -145 -124 -145 -219 0 -101 87 -207 180 -220
28 -4 73 -4 102 0 46 7 59 14 108 64 49 49 57 63 66 111 14 84 -1 142 -52 199
-66 74 -166 99 -259 65z"/>
<path d="M2162 9874 c-19 -13 -22 -24 -22 -78 0 -70 10 -86 56 -86 41 0 56 19
62 80 4 42 1 52 -21 74 -30 30 -44 32 -75 10z"/>
<path d="M2914 5489 c-7 -8 -19 -35 -28 -61 -30 -89 -132 -231 -194 -269 -79
-49 -103 -57 -237 -84 -58 -12 -95 -27 -134 -53 -47 -32 -61 -36 -120 -37 -60
-2 -68 1 -93 27 -18 19 -37 28 -60 29 -29 1 -129 1 -150 -1 -14 0 -9 -355 4
-368 15 -15 172 -16 200 -1 14 8 23 8 31 0 7 -7 53 -11 116 -11 95 0 107 -2
129 -22 20 -19 34 -23 83 -21 68 2 106 21 115 58 7 30 15 31 39 5 26 -29 122
-28 160 1 16 13 30 18 33 12 13 -20 52 -33 96 -33 l46 0 0 39 c0 22 -4 43 -10
46 -5 3 -10 37 -10 75 0 38 5 72 10 75 15 9 12 58 -6 93 -15 30 -19 32 -70 32
-43 0 -56 -4 -61 -17 -12 -35 -24 -44 -41 -31 -23 20 -126 16 -149 -5 -23 -21
-33 -22 -33 -3 0 21 -167 29 -198 10 -20 -13 -25 -13 -44 0 -20 15 -20 15 12
34 32 20 49 25 195 58 76 17 150 53 204 99 38 33 106 127 124 172 9 23 26 62
38 87 22 48 24 92 3 65z m-824 -489 c22 -22 28 -98 9 -117 -8 -8 -7 -17 5 -34
19 -28 22 -118 3 -143 -10 -14 -26 -16 -102 -14 l-90 3 -3 148 c-2 82 -1 155
2 163 4 10 25 14 81 14 62 0 79 -4 95 -20z m813 -15 c-1 -5 6 -18 15 -28 15
-16 15 -20 0 -45 -20 -33 -19 -173 0 -180 7 -2 12 -12 12 -23 0 -16 -7 -19
-43 -19 -24 0 -48 5 -55 12 -8 8 -12 45 -12 101 0 48 -5 97 -11 108 -7 14 -7
29 3 55 12 33 15 35 53 32 22 -2 39 -7 38 -13z m-585 -31 c21 -14 22 -22 22
-138 l0 -124 -30 -4 c-16 -3 -34 -2 -39 2 -6 3 -12 52 -13 108 -4 138 -22 138
-26 0 l-3 -108 -39 0 -40 0 0 135 0 134 63 4 c34 2 67 4 72 5 6 1 21 -5 33
-14z m190 6 l52 1 0 -140 c0 -139 0 -140 -26 -160 -36 -29 -116 -29 -144 -1
-25 25 -25 40 -1 40 11 0 23 5 26 10 3 6 2 10 -4 10 -5 0 -17 7 -25 16 -12 12
-16 37 -16 105 0 77 3 92 21 110 15 15 27 19 42 14 12 -4 46 -6 75 -5z m231
-5 c33 -16 54 -60 49 -101 -3 -27 -7 -29 -53 -34 l-50 -5 0 -37 c0 -47 19 -55
23 -10 3 30 6 32 43 32 37 0 39 -2 39 -31 0 -21 -10 -40 -30 -61 -28 -27 -36
-30 -77 -25 -75 8 -88 30 -87 142 0 98 8 119 49 135 31 13 63 11 94 -5z"/>
<path d="M1979 6664 c-128 -71 -114 -299 23 -370 36 -19 108 -18 157 2 88 35
137 172 97 269 -18 41 -76 102 -112 115 -47 18 -116 11 -165 -16z"/>
<path d="M7410 3135 c0 -104 2 -125 15 -125 11 0 15 12 15 49 0 81 38 81 82 1
19 -34 34 -50 48 -50 18 0 17 4 -11 52 l-30 51 25 24 c32 29 34 75 6 103 -16
16 -33 20 -85 20 l-65 0 0 -125z"/>
<path d="M7894 3148 c-20 -62 -39 -119 -42 -125 -2 -8 4 -13 16 -13 15 0 21 9
26 36 l7 35 52 -3 c48 -3 52 -5 61 -35 6 -23 15 -33 29 -33 11 0 17 5 15 13
-3 6 -22 63 -42 125 -34 100 -40 112 -61 112 -21 0 -27 -12 -61 -112z"/>
<path d="M8363 3136 c36 -108 45 -126 62 -126 19 0 27 17 60 120 21 66 35 123
32 126 -17 17 -34 -12 -56 -92 -13 -49 -27 -95 -31 -102 -3 -7 -20 32 -37 90
-25 85 -34 104 -51 106 -20 3 -19 -3 21 -122z"/>
<path d="M8834 3148 c-20 -62 -39 -119 -42 -125 -2 -8 4 -13 16 -13 15 0 21 9
26 36 l7 35 52 -3 c48 -3 52 -5 61 -35 6 -23 15 -33 29 -33 11 0 17 5 15 13
-3 6 -22 63 -42 125 -34 100 -40 112 -61 112 -21 0 -27 -12 -61 -112z"/>
<path d="M5014 3227 c-3 -8 -3 -56 -2 -108 l3 -94 34 -3 c18 -2 46 2 62 8 63
27 66 170 3 199 -34 15 -93 14 -100 -2z"/>
<path d="M520 1695 l0 -65 50 0 c64 0 106 34 95 78 -9 39 -32 52 -92 52 l-53
0 0 -65z"/>
<path d="M5294 851 c-72 -33 -124 -117 -124 -201 0 -84 52 -168 124 -201 56
-25 145 -25 195 1 55 28 107 93 121 151 23 96 -28 202 -121 249 -50 26 -139
26 -195 1z m173 -81 c120 -73 65 -260 -76 -260 -140 0 -194 183 -76 260 39 26
110 26 152 0z"/>
</g>
</svg>
